<svg class="animated" id="freepik_stories-media-player" xmlns="http://www.w3.org/2000/svg" xmlns:xlink="http://www.w3.org/1999/xlink" viewBox="0 0 500 500" version="1.1" xmlns:svgjs="http://svgjs.com/svgjs"><style>svg#freepik_stories-media-player:not(.animated) .animable {opacity: 0;}svg#freepik_stories-media-player.animated #freepik--Plant--inject-2 {animation: 1.5s Infinite  linear wind;animation-delay: 0s;}svg#freepik_stories-media-player.animated #freepik--Screen--inject-2 {animation: 1.5s Infinite  linear floating;animation-delay: 0s;}svg#freepik_stories-media-player.animated #freepik--Character--inject-2 {animation: 1.5s Infinite  linear wind;animation-delay: 0s;}            @keyframes wind {                0% {                    transform: rotate( 0deg );                }                25% {                    transform: rotate( 1deg );                }                75% {                    transform: rotate( -1deg );                }            }                    @keyframes floating {                0% {                    opacity: 1;                    transform: translateY(0px);                }                50% {                    transform: translateY(-10px);                }                100% {                    opacity: 1;                    transform: translateY(0px);                }            }        .animator-hidden { display: none; }</style><g id="freepik--background-simple--inject-2" class="animable" style="transform-origin: 266.172px 235.53px;"><path d="M215.58,79.41C179,112.06,35,266.78,76.88,399.44c7.94,25.11,54.38,25.19,80.7,25.85,65.58,1.64,138.92-1.21,192.92.52,27.38.87,90.89-43.37,107.11-76.42,8-16.2,6.91-48.75-1.74-64.59S431,246.1,422.4,230.23c-24.36-44.9-22.73-92.43-45.86-138C355.1,49.93,284.35,18.06,215.58,79.41Z" style="fill: #006FFF; transform-origin: 266.172px 235.53px;" id="elcjnevqjya3" class="animable"></path><g id="el42ckmrmsvxe"><path d="M215.58,79.41C179,112.06,35,266.78,76.88,399.44c7.94,25.11,54.38,25.19,80.7,25.85,65.58,1.64,138.92-1.21,192.92.52,27.38.87,90.89-43.37,107.11-76.42,8-16.2,6.91-48.75-1.74-64.59S431,246.1,422.4,230.23c-24.36-44.9-22.73-92.43-45.86-138C355.1,49.93,284.35,18.06,215.58,79.41Z" style="fill: rgb(255, 255, 255); opacity: 0.7; transform-origin: 266.172px 235.53px;" class="animable" id="elt3yxw3rtwm"></path></g></g><g id="freepik--Plant--inject-2" class="animable" style="transform-origin: 66.395px 374.045px;"><path d="M64.2,395.29s-4.3-54.2,7.74-78.49c0,0,1.29,49.24-1.72,78.49Z" style="fill: #006FFF; transform-origin: 67.8341px 356.045px;" id="elewwo90krbl" class="animable"></path><g id="el0l5pf1ajqdyp"><path d="M64.2,395.29s-4.3-54.2,7.74-78.49c0,0,1.29,49.24-1.72,78.49Z" style="opacity: 0.2; transform-origin: 67.8341px 356.045px;" class="animable" id="elszdy3b06uyp"></path></g><path d="M57.87,392.89S62,378,45.34,343.65c0,0,17.26,2,18.12,49.24Z" style="fill: #006FFF; transform-origin: 54.4px 368.27px;" id="el6dckar0elt7" class="animable"></path><path d="M67.2,387.91s3.72-40,9.81-60.22c0,0,2.16,24.68-6.72,59Z" style="fill: #006FFF; transform-origin: 72.2207px 357.8px;" id="elli8hnsz0d2r" class="animable"></path><path d="M74.87,346.74C70.3,389,70,390,70,389.84" style="fill: none; stroke: rgb(38, 50, 56); stroke-linecap: round; stroke-linejoin: round; transform-origin: 72.435px 368.296px;" id="ell9q53zrvf6b" class="animable"></path><path d="M74.28,395.68s-2.89-13.2,12.49-48.56c0,0-17.22,1.35-18.08,48.56Z" style="fill: #006FFF; transform-origin: 77.73px 371.4px;" id="el790ylhus95o" class="animable"></path><path d="M68.82,339.77c-.32,3.17-1.89,28.52-2.54,50.1" style="fill: none; stroke: rgb(38, 50, 56); stroke-linecap: round; stroke-linejoin: round; transform-origin: 67.55px 364.82px;" id="ellb8z5engqw" class="animable"></path><path d="M68.5,395.68s.61-72.33-10.1-78.17c0,0,3.62,66.1,3.37,77.78Z" style="fill: #006FFF; transform-origin: 63.4532px 356.595px;" id="eljim22cvijth" class="animable"></path><path d="M62.51,340.83c.42,2.82,2.53,33.67,2.23,49" style="fill: none; stroke: rgb(38, 50, 56); stroke-linecap: round; stroke-linejoin: round; transform-origin: 63.6395px 365.33px;" id="el9futg8huixb" class="animable"></path><path d="M53.8,356s7.26,16.94,6.75,33.81" style="fill: none; stroke: rgb(38, 50, 56); stroke-linecap: round; stroke-linejoin: round; transform-origin: 57.1878px 372.905px;" id="elmwdcouf9i4s" class="animable"></path><path d="M80.44,357.08s-7.11,17-8.42,32.79" style="fill: none; stroke: rgb(38, 50, 56); stroke-linecap: round; stroke-linejoin: round; transform-origin: 76.23px 373.475px;" id="elo0t5dis8hbf" class="animable"></path><polygon points="72.4 430.04 60.15 430.04 53.8 389.87 78.75 389.87 72.4 430.04" style="fill: rgb(255, 255, 255); stroke: rgb(38, 50, 56); stroke-linecap: round; stroke-linejoin: round; transform-origin: 66.275px 409.955px;" id="eljcwbrytokpj" class="animable"></polygon><path d="M54.39,403.43h24c6.17,2.13,10.26,5.87,10.26,10.12,0,4.47-4.51,12.78-11.2,17.74H55.33c-6.68-5-11.19-13.27-11.19-17.74C44.14,409.3,48.23,405.56,54.39,403.43Z" style="fill: rgb(255, 255, 255); stroke: rgb(38, 50, 56); stroke-linecap: round; stroke-linejoin: round; transform-origin: 66.395px 417.36px;" id="eles1lrgju9bu" class="animable"></path><path d="M78.69,415c1.45-.25,2.92-.57,4.39-1" style="fill: rgb(255, 255, 255); stroke: rgb(38, 50, 56); stroke-linecap: round; stroke-linejoin: round; transform-origin: 80.885px 414.5px;" id="elaav2fm43l0n" class="animable"></path><path d="M50.29,414a75.59,75.59,0,0,0,24.41,1.51" style="fill: rgb(255, 255, 255); stroke: rgb(38, 50, 56); stroke-linecap: round; stroke-linejoin: round; transform-origin: 62.495px 414.947px;" id="elt9v6gc6bao" class="animable"></path></g><g id="freepik--Window--inject-2" class="animable animator-active animator-hidden" style="transform-origin: 94.78px 226.335px;"><path d="M72.85,284.17l-.19.24H73Zm-13.93,0-.19.24h.37Zm7,0-.19.24h.37Zm10.71-113,.11,3.73,1.72,60.36h59.14v4.88h-59l.08,2.92,1,35.93.15,5.14-.18.24h60.29V171.21Z" style="fill: none; stroke: rgb(38, 50, 56); stroke-linecap: round; stroke-linejoin: round; transform-origin: 99.335px 227.79px;" id="el7cdjdqb4ahw" class="animable"></path><polygon points="136.16 174.94 136.16 235.3 78.42 235.3 76.7 174.94 136.16 174.94" style="fill: none; stroke: rgb(38, 50, 56); stroke-linecap: round; stroke-linejoin: round; transform-origin: 106.43px 205.12px;" id="elslbmmld9d2" class="animable"></polygon><polygon points="136.16 240.18 136.16 279.03 79.66 279.03 78.64 243.1 78.56 240.18 136.16 240.18" style="fill: none; stroke: rgb(38, 50, 56); stroke-linecap: round; stroke-linejoin: round; transform-origin: 107.36px 259.605px;" id="el9es65mao67" class="animable"></polygon><polyline points="136.16 240.19 136.16 243.1 78.64 243.1" style="fill: none; stroke: rgb(38, 50, 56); stroke-linecap: round; stroke-linejoin: round; transform-origin: 107.4px 241.645px;" id="ell6ernsnp0tq" class="animable"></polyline><polygon points="48.35 166.48 48.23 170.82 46.96 170.82 46.96 166.48 48.35 166.48" style="fill: none; stroke: rgb(38, 50, 56); stroke-linecap: round; stroke-linejoin: round; transform-origin: 47.655px 168.65px;" id="elljxmny8w8yd" class="animable"></polygon><polygon points="142.37 166.48 142.37 170.82 76.58 170.82 76.46 166.48 142.37 166.48" style="fill: none; stroke: rgb(38, 50, 56); stroke-linecap: round; stroke-linejoin: round; transform-origin: 109.415px 168.65px;" id="elyuv9o5ka3sd" class="animable"></polygon><path d="M48.44,166.48a2.76,2.76,0,0,0-.08-.27c-.39-1.36-1.14-2.28-2-2.28-1.28,0-2.32,2.06-2.32,4.61s1,4.61,2.32,4.61c.75,0,1.42-.72,1.84-1.83L45,284.17l3.28,4.57L52,284.17l1.94-113.35.08-4.34ZM47,170.82v-4.34h1.39l-.12,4.34Z" style="fill: none; stroke: rgb(38, 50, 56); stroke-linecap: round; stroke-linejoin: round; transform-origin: 49.03px 226.335px;" id="elgp4rieb7d1" class="animable"></path><line x1="48.21" y1="171.31" x2="48.23" y2="170.82" style="fill: none; stroke: rgb(38, 50, 56); stroke-linecap: round; stroke-linejoin: round; transform-origin: 48.22px 171.065px;" id="el7oyjdsi78jc" class="animable"></line><polygon points="59.59 166.48 59.56 170.82 59.56 171.21 58.92 284.17 58.73 284.41 55.28 288.74 51.95 284.17 53.89 170.82 53.97 166.48 59.59 166.48" style="fill: none; stroke: rgb(38, 50, 56); stroke-linecap: round; stroke-linejoin: round; transform-origin: 55.77px 227.61px;" id="el368iummgk1v" class="animable"></polygon><polygon points="65.88 284.17 65.69 284.41 62.3 288.74 59.1 284.41 58.92 284.17 59.56 171.21 59.56 170.82 59.59 166.48 65.21 166.48 65.24 170.82 65.24 171.21 65.26 174.94 65.6 235.3 65.63 240.18 65.65 243.1 65.85 279.03 65.88 284.17" style="fill: none; stroke: rgb(38, 50, 56); stroke-linecap: round; stroke-linejoin: round; transform-origin: 62.4px 227.61px;" id="elw7l85q8915" class="animable"></polygon><polygon points="72.85 284.17 72.66 284.41 69.32 288.74 66.06 284.41 65.88 284.17 65.85 279.03 65.65 243.1 65.63 240.18 65.6 235.3 65.26 174.94 65.24 171.21 65.24 170.82 65.21 166.48 70.83 166.48 70.91 170.82 70.91 171.21 70.98 174.94 72.01 235.3 72.1 240.18 72.15 243.1 72.76 279.03 72.85 284.17" style="fill: none; stroke: rgb(38, 50, 56); stroke-linecap: round; stroke-linejoin: round; transform-origin: 69.03px 227.61px;" id="elcmatzwqj0z4" class="animable"></polygon><polygon points="79.81 284.17 79.63 284.41 76.34 288.74 73.03 284.41 72.85 284.17 72.76 279.03 72.15 243.1 72.1 240.18 72.01 235.3 70.98 174.94 70.91 171.21 70.91 170.82 70.83 166.48 76.46 166.48 76.58 170.82 76.59 171.21 76.7 174.94 78.42 235.3 78.56 240.18 78.64 243.1 79.66 279.03 79.81 284.17" style="fill: none; stroke: rgb(38, 50, 56); stroke-linecap: round; stroke-linejoin: round; transform-origin: 75.32px 227.61px;" id="ell7wu9jte5qk" class="animable"></polygon><polygon points="75.11 171.65 49.57 171.65 49.62 170.47 75.07 170.47 75.11 171.65" style="fill: rgb(38, 50, 56); transform-origin: 62.34px 171.06px;" id="el0pufjbrm2kao" class="animable"></polygon><path d="M119.74,196.48c-5.64,8.81-13.64,22.14-18.57,33.94" style="fill: none; stroke: rgb(38, 50, 56); stroke-linecap: round; stroke-linejoin: round; transform-origin: 110.455px 213.45px;" id="elnqdl43q4xda" class="animable"></path><path d="M99.05,214.66c-1,2.17-2,4.32-2.91,6.43" style="fill: none; stroke: rgb(38, 50, 56); stroke-linecap: round; stroke-linejoin: round; transform-origin: 97.595px 217.875px;" id="el94ac1v0ymqu" class="animable"></path><path d="M114.72,187.15c-4,6.21-9.13,14.68-13.55,23.26" style="fill: none; stroke: rgb(38, 50, 56); stroke-linecap: round; stroke-linejoin: round; transform-origin: 107.945px 198.78px;" id="elphx30rf2phb" class="animable"></path><path d="M126.26,186.66s-1.83,2.61-4.57,6.81" style="fill: none; stroke: rgb(38, 50, 56); stroke-linecap: round; stroke-linejoin: round; transform-origin: 123.975px 190.065px;" id="el4l7yvid8vd9" class="animable"></path><path d="M142.61,170.82H141.2c.39,1.39,1.14,2.33,2,2.33,1.28,0,2.32-2.07,2.32-4.61s-1-4.61-2.32-4.61c-.91,0-1.69,1-2.07,2.55h1.48Z" style="fill: none; stroke: rgb(38, 50, 56); stroke-linecap: round; stroke-linejoin: round; transform-origin: 143.325px 168.54px;" id="elk7p8bkr33s" class="animable"></path></g><g id="freepik--Screen--inject-2" class="animable" style="transform-origin: 296.715px 179.225px;"><rect x="157.92" y="104.63" width="277.65" height="164.02" style="fill: rgb(38, 50, 56); transform-origin: 296.745px 186.64px;" id="elrpqf3k0etxo" class="animable"></rect><circle cx="296.52" cy="168.54" r="34.54" style="fill: rgb(255, 255, 255); transform-origin: 296.52px 168.54px;" id="elgs0pk7bhwxm" class="animable"></circle><polygon points="315.36 169.81 286.61 153.21 286.61 186.41 315.36 169.81" style="fill: rgb(38, 50, 56); transform-origin: 300.985px 169.81px;" id="elrxpk5zf8gc" class="animable"></polygon><rect x="161.6" y="231.14" width="270.3" height="5.32" style="fill: rgb(153, 153, 153); transform-origin: 296.75px 233.8px;" id="elfbo7kg5pi2f" class="animable"></rect><rect x="161.6" y="231.14" width="151.52" height="5.32" style="fill: #006FFF; transform-origin: 237.36px 233.8px;" id="elg4xcq4szla" class="animable"></rect><rect x="161.9" y="245.93" width="2.61" height="10.24" style="fill: rgb(255, 255, 255); transform-origin: 163.205px 251.05px;" id="el9qafweftpi" class="animable"></rect><rect x="166.46" y="245.93" width="2.61" height="10.24" style="fill: rgb(255, 255, 255); transform-origin: 167.765px 251.05px;" id="el9z410g3ph5r" class="animable"></rect><rect x="182.25" y="245.93" width="10.24" height="10.24" style="fill: rgb(255, 255, 255); transform-origin: 187.37px 251.05px;" id="elv1wcu6xb5p9" class="animable"></rect><polygon points="206.54 251.05 215.41 245.93 215.41 256.18 206.54 251.05" style="fill: rgb(255, 255, 255); transform-origin: 210.975px 251.055px;" id="ell2bev6buoke" class="animable"></polygon><rect x="203.93" y="245.93" width="2.61" height="10.24" style="fill: rgb(255, 255, 255); transform-origin: 205.235px 251.05px;" id="elu1st7xymo79" class="animable"></rect><polygon points="235.3 251.05 226.43 245.93 226.43 256.18 235.3 251.05" style="fill: rgb(255, 255, 255); transform-origin: 230.865px 251.055px;" id="elv2ciucqmkr9" class="animable"></polygon><g id="el4ibnwlzl0aq"><rect x="235.3" y="245.93" width="2.61" height="10.24" style="fill: rgb(255, 255, 255); transform-origin: 236.605px 251.05px; transform: rotate(180deg);" class="animable" id="elqi5tvg4kn4"></rect></g><polygon points="254.82 245.74 249.7 251.92 259.95 251.92 254.82 245.74" style="fill: rgb(255, 255, 255); transform-origin: 254.825px 248.83px;" id="elryjrch3c3ae" class="animable"></polygon><g id="elc1v2j32ik7l"><rect x="253.52" y="249.75" width="2.61" height="10.62" style="fill: rgb(255, 255, 255); transform-origin: 254.825px 255.06px; transform: rotate(90deg);" class="animable" id="elsk3dxt7rswl"></rect></g><rect x="413.08" y="245.74" width="18.09" height="10.44" style="fill: none; stroke: rgb(255, 255, 255); stroke-miterlimit: 10; stroke-width: 0.928564px; transform-origin: 422.125px 250.96px;" id="el7irqblv48yq" class="animable"></rect><polyline points="397.76 256.18 394.53 256.18 394.53 253.39" style="fill: none; stroke: rgb(255, 255, 255); stroke-miterlimit: 10; stroke-width: 0.928564px; transform-origin: 396.145px 254.785px;" id="el6i3g1nnkp3" class="animable"></polyline><polyline points="405.72 253.39 405.72 256.18 402.61 256.18" style="fill: none; stroke: rgb(255, 255, 255); stroke-miterlimit: 10; stroke-width: 0.928564px; transform-origin: 404.165px 254.785px;" id="elac37k2l1zzf" class="animable"></polyline><polyline points="402.61 245.74 405.72 245.74 405.72 248.69" style="fill: none; stroke: rgb(255, 255, 255); stroke-miterlimit: 10; stroke-width: 0.928564px; transform-origin: 404.165px 247.215px;" id="elpkyh5kbmiki" class="animable"></polyline><polyline points="394.53 248.69 394.53 245.74 397.76 245.74" style="fill: none; stroke: rgb(255, 255, 255); stroke-miterlimit: 10; stroke-width: 0.928564px; transform-origin: 396.145px 247.215px;" id="elp1axit7shms" class="animable"></polyline><g id="elpgxvnpmr2de"><polyline points="209.77 104.63 241.18 104.63 189.62 268.65 157.86 268.65" style="fill: rgb(255, 255, 255); stroke: rgb(38, 50, 56); stroke-linecap: round; stroke-linejoin: round; stroke-width: 0.928564px; opacity: 0.1; transform-origin: 199.52px 186.64px;" class="animable" id="elkeak483z0v"></polyline></g><g id="eldf5dwht8dw"><polygon points="351.53 268.65 403.44 104.63 434.85 104.63 383.29 268.65 351.53 268.65" style="fill: rgb(255, 255, 255); stroke: rgb(38, 50, 56); stroke-linecap: round; stroke-linejoin: round; stroke-width: 0.928564px; opacity: 0.1; transform-origin: 393.19px 186.64px;" class="animable" id="eljvvpsiclp8"></polygon></g><g id="elprvmdn6re9f"><polyline points="435.57 124.59 401.85 231.14 400.17 236.46 397.23 245.74 394.53 254.29 389.98 268.65 398.16 268.65 405.36 245.74 408.27 236.46 409.94 231.14 435.57 149.61" style="fill: rgb(255, 255, 255); stroke: rgb(38, 50, 56); stroke-linecap: round; stroke-linejoin: round; stroke-width: 0.928564px; opacity: 0.1; transform-origin: 412.775px 196.62px;" class="animable" id="elmhg3ht1aplq"></polyline></g><rect x="157.92" y="89.8" width="277.65" height="14.83" style="fill: #006FFF; stroke: rgb(38, 50, 56); stroke-linecap: round; stroke-linejoin: round; stroke-width: 0.928564px; transform-origin: 296.745px 97.215px;" id="elyaiaxrj32zq" class="animable"></rect><circle cx="173.65" cy="97.32" r="4.58" style="fill: rgb(255, 255, 255); transform-origin: 173.65px 97.32px;" id="eld9xv6gya6f" class="animable"></circle><path d="M192,97.32a4.59,4.59,0,1,1-4.59-4.58A4.59,4.59,0,0,1,192,97.32Z" style="fill: rgb(255, 255, 255); transform-origin: 187.41px 97.33px;" id="elcogebv17xst" class="animable"></path><path d="M205.67,97.32a4.58,4.58,0,1,1-4.58-4.58A4.58,4.58,0,0,1,205.67,97.32Z" style="fill: rgb(255, 255, 255); transform-origin: 201.09px 97.32px;" id="elwjlscgigkbb" class="animable"></path></g><g id="freepik--Sofa--inject-2" class="animable" style="transform-origin: 239.731px 355.03px;"><path d="M116.84,393.35h247l13.28-53.87c3.84-20.85-9.25-38.62-29.43-38.62h0a273.07,273.07,0,0,0-214.72,0h0c-20.18,0-33.27,17.77-29.43,38.62Z" style="fill: rgb(153, 153, 153); stroke: rgb(38, 50, 56); stroke-linecap: round; stroke-linejoin: round; transform-origin: 240.33px 336.11px;" id="el5d0i1zq5xj6" class="animable"></path><g id="elw8s4z4dk80e"><path d="M128.17,315.81l4.43-1.25a389.57,389.57,0,0,1,215.14,1.25h0c5.89,0,9.88,5.07,8.91,11.2l-9.82,62.33H129.55L119.33,327C118.32,320.88,122.28,315.81,128.17,315.81Z" style="opacity: 0.2; transform-origin: 237.984px 344.686px;" class="animable" id="elwwynacio8in"></path></g><path d="M347.67,431.19h7.82c.75,0,1.49-1,1.79-2.46l.61-2.92H346.07l.17,2.92C346.33,430.18,346.92,431.19,347.67,431.19Z" style="fill: rgb(38, 50, 56); stroke: rgb(38, 50, 56); stroke-linecap: round; stroke-linejoin: round; transform-origin: 351.98px 428.5px;" id="elwm1vknqrvud" class="animable"></path><path d="M141.17,431.19h-7.82c-.75,0-1.49-1-1.8-2.46l-.6-2.92h11.82l-.17,2.92C142.51,430.18,141.92,431.19,141.17,431.19Z" style="fill: rgb(38, 50, 56); stroke: rgb(38, 50, 56); stroke-linecap: round; stroke-linejoin: round; transform-origin: 136.86px 428.5px;" id="elf5wbfptclgr" class="animable"></path><polygon points="122.81 425.81 357.89 425.81 363.95 392.88 116.75 392.88 122.81 425.81" style="fill: rgb(133, 133, 133); stroke: rgb(38, 50, 56); stroke-linecap: round; stroke-linejoin: round; transform-origin: 240.35px 409.345px;" id="eltn1azoufhq" class="animable"></polygon><path d="M240.35,392.88h108.7l2.54-15.69a7.53,7.53,0,0,0-7.73-9s-35.83,5.53-47.61,5.53-46.72-5.53-46.72-5.53a9.09,9.09,0,0,0-9.18,9Z" style="fill: rgb(133, 133, 133); stroke: rgb(38, 50, 56); stroke-linecap: round; stroke-linejoin: round; transform-origin: 296.043px 380.531px;" id="elyimpg51850j" class="animable"></path><path d="M131.65,392.88h108.7V379.4a11.36,11.36,0,0,0-11.47-11.18H139.13c-6.33,0-10.65,5-9.66,11.18Z" style="fill: rgb(133, 133, 133); stroke: rgb(38, 50, 56); stroke-linecap: round; stroke-linejoin: round; transform-origin: 184.839px 380.55px;" id="elcfxf8zesuow" class="animable"></path><path d="M128,425.81H116.64c-4.94,0-9.71-3.67-10.66-8.24L89.83,338c-.79-3.8,1.63-6.91,5.41-6.91h0c14.35,0,27.88,11.66,30.12,25.53l10.28,61C136.38,422.14,133,425.81,128,425.81Z" style="fill: rgb(153, 153, 153); stroke: rgb(38, 50, 56); stroke-linecap: round; stroke-linejoin: round; transform-origin: 112.711px 378.45px;" id="elg06s04aqyhs" class="animable"></path><path d="M350.86,425.81h11.37A11.56,11.56,0,0,0,373,416.86L389.6,333c.88-4.2-1.51-7.64-5.33-7.64h0c-14.5,0-28.35,12.9-30.82,28.19l-10.1,63.3A7.41,7.41,0,0,0,350.86,425.81Z" style="fill: rgb(153, 153, 153); stroke: rgb(38, 50, 56); stroke-linecap: round; stroke-linejoin: round; transform-origin: 366.484px 375.587px;" id="el4pltq36oii" class="animable"></path></g><g id="freepik--Character--inject-2" class="animable" style="transform-origin: 242.332px 336.796px;"><path d="M348.43,343.92a151.11,151.11,0,0,1,18.36-30.78,1.77,1.77,0,0,1,.94-.75,1.72,1.72,0,0,1,1.45.68c5,4.83,0,7.59,2.14,14.18a5.1,5.1,0,0,1,2.67-1.71,3.6,3.6,0,0,0,2.49-4.28s1.38-2.66-.12-10.2c-1.95-9.76-5.45-12.63-9.76-10.62a41.31,41.31,0,0,0-11.45,8.69c-2.9,3.18-16.81,22.84-19.85,29.95a6.39,6.39,0,0,0,.09,4.86,5.48,5.48,0,0,0,2.61,2.42,8.61,8.61,0,0,0,5.82.62C345.75,346.51,347.62,345.74,348.43,343.92Z" style="fill: rgb(255, 255, 255); stroke: rgb(38, 50, 56); stroke-linecap: round; stroke-linejoin: round; transform-origin: 355.962px 323.532px;" id="elxipjtw624aq" class="animable"></path><path d="M346.42,332.69c-2-1-7.42-3.81-7.88-4.36s5.9-10.14,5.9-10.14-3.47-2.54-3-3.17c.8-1.2,4.68-3.29,7.44-4.45s3.6-6.94,3.6-6.94,9.82,4.4,10.32,4.84,5,2.39,5.44,2.68,1.46,15.44-4.89,18.88a16.38,16.38,0,0,0-6.28,5.88A23.48,23.48,0,0,0,346.42,332.69Z" style="fill: rgb(255, 255, 255); transform-origin: 353.548px 319.77px;" id="elf1811szdxh" class="animable"></path><path d="M346.42,332.69c-2-1-7.42-3.81-7.88-4.36s5.9-10.14,5.9-10.14-3.47-2.54-3-3.17c.8-1.2,4.68-3.29,7.44-4.45s3.6-6.94,3.6-6.94,9.82,4.4,10.32,4.84,5,2.39,5.44,2.68,1.46,15.44-4.89,18.88a16.38,16.38,0,0,0-6.28,5.88A23.48,23.48,0,0,0,346.42,332.69Z" style="fill: none; stroke: rgb(38, 50, 56); stroke-linecap: round; stroke-linejoin: round; transform-origin: 353.548px 319.77px;" id="eltfq5p6nopxm" class="animable"></path><path d="M353.76,329.85A15.5,15.5,0,0,1,349,331.5" style="fill: rgb(38, 50, 56); stroke: rgb(38, 50, 56); stroke-linecap: round; stroke-linejoin: round; transform-origin: 351.38px 330.675px;" id="el794dlff76pw" class="animable"></path><path d="M352.49,309.17a6.34,6.34,0,0,1,2.31,4.36" style="fill: none; stroke: rgb(38, 50, 56); stroke-linecap: round; stroke-linejoin: round; transform-origin: 353.645px 311.35px;" id="elggxgf4pemdv" class="animable"></path><path d="M343.83,323.47a5.19,5.19,0,0,0,4.58,1.75" style="fill: none; stroke: rgb(38, 50, 56); stroke-linecap: round; stroke-linejoin: round; transform-origin: 346.12px 324.366px;" id="elgtxcjdi98x7" class="animable"></path><path d="M350.82,314.17c-.17.77-.55,1.34-.85,1.27s-.41-.74-.24-1.51.55-1.33.85-1.27S351,313.4,350.82,314.17Z" style="fill: rgb(38, 50, 56); transform-origin: 350.277px 314.051px;" id="ela8o8k3nrhg" class="animable"></path><path d="M358.09,321.54s4.82-1.34,4,2.21c-.9,4.1-4.91,4.83-6,3.2" style="fill: rgb(255, 255, 255); stroke: rgb(38, 50, 56); stroke-linecap: round; stroke-linejoin: round; transform-origin: 359.137px 324.524px;" id="elgs7zgq4dmh" class="animable"></path><path d="M370,321.31a19.6,19.6,0,0,1-1.52,1.47" style="fill: none; stroke: rgb(127, 127, 127); stroke-linecap: round; stroke-linejoin: round; transform-origin: 369.24px 322.045px;" id="elexadfpe3w5h" class="animable"></path><path d="M357,310.15c-.75-2.35-.05-3.31-2.28-4.36-2.71-1.27-2.71-2.87-2.25-4.5a21.19,21.19,0,0,0,.68-4c.2-2.5,2.88-3.85,3.72-3.36,6.42,3.73,7.95,9.28,14.24,13.35,2.67,1.72.87,2.71,1.39,4,.86,2.19.54,5.9-.3,8.1-1.41,3.71-3.1,7.53-6.4,9.68-2.86,1.85-7.07,3.95-8.81,6.87l.27-1.57-.59-6.24a6.83,6.83,0,0,0,4.68-2.44,3.7,3.7,0,0,0,.36-3.77c-1.46-3.25-4.65.15-6.26,1.34C356.74,319,358.44,314.6,357,310.15Z" style="fill: rgb(38, 50, 56); stroke: rgb(38, 50, 56); stroke-linecap: round; stroke-linejoin: round; transform-origin: 362.624px 314.88px;" id="el22o1rcpxcd8" class="animable"></path><path d="M349.35,305.75c.54-.24,3.61-1.14,2.51-1.83-.43-.28-1.26.17-1.61.43S349.55,305.65,349.35,305.75Z" style="fill: rgb(38, 50, 56); transform-origin: 350.723px 304.791px;" id="el1ee95f9orkg" class="animable"></path><path d="M354.8,309.33c.12-.58.31-3.77,1.23-2.86.36.36.11,1.27-.07,1.67S354.85,309.11,354.8,309.33Z" style="fill: rgb(38, 50, 56); transform-origin: 355.507px 307.819px;" id="el1bgzsvu1vcn" class="animable"></path><path d="M367.22,326.53c-.26,1.41-4.06,4.36-5.06,5.39s-2.11,1.36-3,2.23-1.28,2.53-.28,3.27,2.24,0,3.06-.75,1.6-1.81,2.73-2a7.35,7.35,0,0,1,2,.18,6.65,6.65,0,0,0,4.77-1.6,17.7,17.7,0,0,0,3.34-3.92c1-1.47,3.35-8.18,1.37-9.78C372.91,317,368.13,321.55,367.22,326.53Z" style="fill: rgb(255, 255, 255); stroke: rgb(38, 50, 56); stroke-linecap: round; stroke-linejoin: round; transform-origin: 367.605px 328.272px;" id="el8kp2oe9acr3" class="animable"></path><path d="M363.84,328.73a3.15,3.15,0,0,0-1.47-.24,1.22,1.22,0,0,0-1,1.06c-.07.82.68,1.41,1.32,1.8l4.57,2.75c.65.39,1.43.79,2.06.4a1.81,1.81,0,0,0,.62-1.67C369.62,330,365.82,329.42,363.84,328.73Z" style="fill: rgb(255, 255, 255); stroke: rgb(38, 50, 56); stroke-linecap: round; stroke-linejoin: round; transform-origin: 365.664px 331.57px;" id="el9q3ug62x1ho" class="animable"></path><path d="M365.29,326.46a3.13,3.13,0,0,0-1.48-.15,1.25,1.25,0,0,0-.95,1.13c0,.82.74,1.37,1.4,1.71l4.68,2.47c.67.35,1.47.69,2.07.26a1.79,1.79,0,0,0,.54-1.71C371.11,327.32,367.29,327,365.29,326.46Z" style="fill: rgb(255, 255, 255); stroke: rgb(38, 50, 56); stroke-linecap: round; stroke-linejoin: round; transform-origin: 367.226px 329.181px;" id="eliej1mt73l9q" class="animable"></path><path d="M366.43,323.92a3,3,0,0,0-1.47-.1,1.34,1.34,0,0,0-1,1.17c0,.82.72,1.34,1.37,1.66L370,329c.66.32,1.46.64,2.06.19a1.89,1.89,0,0,0,.57-1.74C372.22,324.55,368.42,324.4,366.43,323.92Z" style="fill: rgb(255, 255, 255); stroke: rgb(38, 50, 56); stroke-linecap: round; stroke-linejoin: round; transform-origin: 368.312px 326.592px;" id="elvixcs9yq098" class="animable"></path><path d="M367.24,321.08a2.93,2.93,0,0,0-1.47.17,1.32,1.32,0,0,0-.74,1.32c.1.82.94,1.2,1.64,1.4l5,1.43c.71.2,1.54.38,2.06-.18a1.91,1.91,0,0,0,.25-1.81C373.05,320.68,369.28,321.2,367.24,321.08Z" style="fill: rgb(255, 255, 255); stroke: rgb(38, 50, 56); stroke-linecap: round; stroke-linejoin: round; transform-origin: 369.563px 323.323px;" id="el073nghsia4k6" class="animable"></path><path d="M345.82,362.63s-32.25,12.19-58.72,15.86c-9,1.25-15.27,1.5-20,1.09-3.91-13.22-4.23-23.35-3.6-30.09a49.43,49.43,0,0,1,8.3-2.49c.45-3.54,14.64-4.89,34.31-10.67s31.19-5.4,31.19-5.4c8.82-2.05,18.91,3.25,19.72,5S355.9,340,355.9,340C355.16,361.37,345.82,362.63,345.82,362.63Z" style="fill: #006FFF; transform-origin: 310.233px 355.114px;" id="eliuh815b3pzc" class="animable"></path><g style="clip-path: url(&quot;#freepik--clip-path--inject-2&quot;); transform-origin: 328.157px 352.115px;" id="elnwhmu75fw4n" class="animable"><g id="el944e41a3af"><path d="M274.91,367.13c1.66,2.45,15.08,6.43,34.62,1.68s-1.65-5.31-1-7.16,13.84-.43,26.78-2.6,14.37-16.39,17-16,4.55-3,6.22.27c2.32,4.66,17.8-19.41,21.25-18.42,1.31.38,1.67,1.82,1.62,3.46-3.47,12-23,27.73-23,27.73-4.78,8-12.6,6.57-12.6,6.57s-32.25,12.19-58.72,15.86c-2.59.36-5,.64-7.12.84l-.8-.33C277.36,374.56,276,370.62,274.91,367.13Z" style="opacity: 0.3; transform-origin: 328.157px 352.115px;" class="animable" id="ely8fidu05qil"></path></g><g id="el6stemisg4su"><path d="M335.42,334.53a34.28,34.28,0,0,1,12.15,1.57.5.5,0,0,0,.48-.86c-3.14-2.43-8.6-5.48-13-1.58A.5.5,0,0,0,335.42,334.53Z" style="opacity: 0.3; transform-origin: 341.56px 333.961px;" class="animable" id="elnxdg8fqcu5o"></path></g></g><path d="M345.82,362.63s-32.25,12.19-58.72,15.86c-9,1.25-15.27,1.5-20,1.09-3.91-13.22-4.23-23.35-3.6-30.09a49.43,49.43,0,0,1,8.3-2.49c.45-3.54,14.64-4.89,34.31-10.67s31.19-5.4,31.19-5.4c8.82-2.05,18.91,3.25,19.72,5S355.9,340,355.9,340C355.16,361.37,345.82,362.63,345.82,362.63Z" style="fill: none; stroke: rgb(38, 50, 56); stroke-linecap: round; stroke-linejoin: round; transform-origin: 310.233px 355.114px;" id="elmyncp8vt2pb" class="animable"></path><path d="M353.78,338.38a29.2,29.2,0,0,0-9.82-4.61" style="fill: none; stroke: rgb(38, 50, 56); stroke-linecap: round; stroke-linejoin: round; transform-origin: 348.87px 336.075px;" id="elh5kzq04sszm" class="animable"></path><path d="M173.31,357.7c-2.64,3.55-4.37,5.43-4.13,9.79.15,2.59-1.65,7.42-7.23,5.57-6.16-2-14.42-.07-16.51-.33a12.17,12.17,0,0,1-3.43-.86c-5.62.84-4.58-2.91-4.58-2.91a5.92,5.92,0,0,1,1-.18,6.84,6.84,0,0,1-.39-.83c-.6-1.5.73-1.83.73-1.83-.35-1.64.6-1.61,1.68-1.35a.68.68,0,0,0,.37.09c.33,0,.75-.11,1.22-.12l-1.59,0c-.64-.45-.67-1.58.11-1.64l3.85.27c2.15-.37,11.38-3.09,14.74-3.53,6.38-.83,10.66-14.32,10.66-14.32L177.5,352Z" style="fill: rgb(255, 255, 255); stroke: rgb(38, 50, 56); stroke-linecap: round; stroke-linejoin: round; transform-origin: 157.427px 359.496px;" id="elxnsb57hw4gg" class="animable"></path><path d="M139.05,366.25a5.2,5.2,0,0,0,2.62.2" style="fill: rgb(255, 255, 255); stroke: rgb(38, 50, 56); stroke-linecap: round; stroke-linejoin: round; transform-origin: 140.36px 366.392px;" id="el73ulieq13zk" class="animable"></path><path d="M138.46,368.78c.75,0,2.67.34,3.61,0" style="fill: rgb(255, 255, 255); stroke: rgb(38, 50, 56); stroke-linecap: round; stroke-linejoin: round; transform-origin: 140.265px 368.856px;" id="el9ak8ri7o0a9" class="animable"></path><path d="M138.61,332.52l-2.79,9.64L129,340.65a31.73,31.73,0,0,0-13.09.09c-3,.6-6.35-.08-6.94-5.94-.67-6.45-4.17-9.61-4.71-11.64-.67-2.49-1-3.11-1-4,0-3.6,4.83-9.19,5.45-5.53a7.67,7.67,0,0,1,0-1.9c.51-2.29,2.65-1.2,2.65-1.2l0,.22c-.12,1.69.5,3.1,1.42,5.61a19.84,19.84,0,0,1,3.2,4.13c1.46,2.25,2.4,4.71,4.31,7.4C123.79,333,138.61,332.52,138.61,332.52Z" style="fill: rgb(255, 255, 255); stroke: rgb(38, 50, 56); stroke-linecap: round; stroke-linejoin: round; transform-origin: 120.935px 326.215px;" id="el293qfdiamqu" class="animable"></path><line x1="106.16" y1="317.94" x2="105.29" y2="314.85" style="fill: rgb(255, 255, 255); stroke: rgb(38, 50, 56); stroke-linecap: round; stroke-linejoin: round; transform-origin: 105.725px 316.395px;" id="elnq2cenkepg" class="animable"></line><line x1="104.96" y1="319.77" x2="104.21" y2="316.79" style="fill: rgb(255, 255, 255); stroke: rgb(38, 50, 56); stroke-linecap: round; stroke-linejoin: round; transform-origin: 104.585px 318.28px;" id="elao6syx8rpuu" class="animable"></line><line x1="107.52" y1="316.79" x2="106.52" y2="313.17" style="fill: rgb(255, 255, 255); stroke: rgb(38, 50, 56); stroke-linecap: round; stroke-linejoin: round; transform-origin: 107.02px 314.98px;" id="elmjgi6mw646e" class="animable"></line><polyline points="108.44 312.79 109.11 315.02 110.05 314.81" style="fill: rgb(255, 255, 255); stroke: rgb(38, 50, 56); stroke-linecap: round; stroke-linejoin: round; transform-origin: 109.245px 313.905px;" id="eluv2s4q75avm" class="animable"></polyline><path d="M262.75,342.24l-11.19,10.32,3.18,26.06,24.44.38s-8-19.84-7.37-32h0l-4.33,1.1-4.73-5.86" style="fill: rgb(38, 50, 56); stroke: rgb(38, 50, 56); stroke-linecap: round; stroke-linejoin: round; transform-origin: 265.37px 360.62px;" id="eljk3usu15f7f" class="animable"></path><path d="M245.57,359.53s-23.33-25.36-38.4-39.76c-2,5.12-4.88,7.1-13.3,17.21l-22,26.15s-6.29-2.51-7.45-6.78c-.2-.77,13.11-21.69,28.85-48.33,6.77-11.45,10.7-10.23,10.7-10.23l0,.17c.11-.14.1-.21.17-.21,14.15.27,67,49,67,49C273.41,370.45,245.57,359.53,245.57,359.53Z" style="fill: rgb(38, 50, 56); stroke: rgb(38, 50, 56); stroke-linecap: round; stroke-linejoin: round; transform-origin: 217.845px 330.44px;" id="elgrj5mphyfwv" class="animable"></path><path d="M264.88,358.43a51.88,51.88,0,0,1-14.87-5c-13.72-7.07-42.46-21.76-48.25-23-9.11-2-70.92,1.72-70.92,1.72s1,13.08,2.62,13.43,62.59,3.84,62.59,3.84,41.22,25.89,54.24,28.44c11.54,2.27,16.82,1.75,16.82,1.75l-2.23-21.15Z" style="fill: rgb(38, 50, 56); stroke: rgb(38, 50, 56); stroke-linecap: round; stroke-linejoin: round; transform-origin: 198.975px 354.75px;" id="elgt3y0jdlbzc" class="animable"></path><path d="M317.22,363.13c.76,0,1.53,0,2.32-.07" style="fill: none; stroke: rgb(38, 50, 56); stroke-linecap: round; stroke-linejoin: round; transform-origin: 318.38px 363.095px;" id="elb5jjt4uuzx8" class="animable"></path><path d="M292.46,350.06s8.18,11.34,21.93,12.89" style="fill: none; stroke: rgb(38, 50, 56); stroke-linecap: round; stroke-linejoin: round; transform-origin: 303.425px 356.505px;" id="elcs6n53dkyaq" class="animable"></path><polygon points="293.14 303.26 293.16 295.08 304.04 297.47 303.8 310.09 297.52 310.91 293.14 303.26" style="fill: rgb(38, 50, 56); stroke: rgb(38, 50, 56); stroke-linecap: round; stroke-linejoin: round; transform-origin: 298.59px 302.995px;" id="eltbwolrhesl" class="animable"></polygon><ellipse cx="299.37" cy="303.63" rx="2.39" ry="3.74" style="fill: rgb(255, 255, 255); transform-origin: 299.37px 303.63px;" id="el3qf6lnd6t27" class="animable"></ellipse><polygon points="300.67 303.76 298.69 301.97 298.69 305.56 300.67 303.76" style="fill: rgb(38, 50, 56); transform-origin: 299.68px 303.765px;" id="elpe68rsowl48" class="animable"></polygon><path d="M328.38,338.57s-1.2,10.36,2.38,17.43c.36.71,1.46-3.19,1.28-7.61C331.84,343.57,330.27,338.19,328.38,338.57Z" style="fill: rgb(38, 50, 56); stroke: rgb(38, 50, 56); stroke-linecap: round; stroke-linejoin: round; transform-origin: 330.123px 347.317px;" id="elc6wfy5empt" class="animable"></path><path d="M331.36,353.07c-1,.48-21.72.44-28-.79s-11.89-30.2-11.89-30.2L288,319s-1.19-5-.9-6.35,2.83-8.36,2.83-8.36l.37-1.7,2.11-2.11,2.19.49-.1,1.92-1.38.33,4.38,7.65a5,5,0,0,0-.86-2.79c-1-1.56.3-4.32.61-2.81a4.76,4.76,0,0,0,2.07,2.56l1.78,5.35-4.06,7.61L308,343.13l21.32-.69.11.43s1.5-.08,1.9,3.76A30.14,30.14,0,0,1,331.36,353.07Z" style="fill: rgb(255, 255, 255); stroke: rgb(38, 50, 56); stroke-linecap: round; stroke-linejoin: round; transform-origin: 309.286px 326.918px;" id="el2meqselv1dt" class="animable"></path><path d="M302.08,310.31s0,11.73,5.89,19.05c3.63,4.51,9.22,4.1,11.24,3.71s10.9-4.74,19.33-4.74" style="fill: none; stroke: rgb(38, 50, 56); stroke-linecap: round; stroke-linejoin: round; transform-origin: 320.31px 321.802px;" id="elmc6fv19b2l" class="animable"></path><path d="M346.55,353.28A42,42,0,0,1,330.76,356a12.58,12.58,0,0,0,.6-2.93,30.14,30.14,0,0,0-.05-6.44c-.4-3.84-1.9-3.76-1.9-3.76l-.11-.43-.92-3.87s16.52-3.21,20.25.62S354.1,350.18,346.55,353.28Z" style="fill: #006FFF; stroke: rgb(38, 50, 56); stroke-linecap: round; stroke-linejoin: round; transform-origin: 340.101px 346.66px;" id="el64hmfdelpja" class="animable"></path><path d="M338.8,353.47c3.44,0,7.42-.12,10.23-1.7" style="fill: none; stroke: rgb(38, 50, 56); stroke-linecap: round; stroke-linejoin: round; transform-origin: 343.915px 352.62px;" id="elk7yrj7yknz8" class="animable"></path><path d="M334,353.4c.66,0,1.43,0,2.28,0" style="fill: none; stroke: rgb(38, 50, 56); stroke-linecap: round; stroke-linejoin: round; transform-origin: 335.14px 353.4px;" id="els6kz4mxg5k" class="animable"></path><path d="M364.54,324.46h0c-.52,3.83-3.8,6.6-7.32,6.18s-6-3.87-5.44-7.71c.17-2.07,3.17-5.4,6.69-5S365.05,320.65,364.54,324.46Z" style="fill: #006FFF; stroke: rgb(38, 50, 56); stroke-linecap: round; stroke-linejoin: round; transform-origin: 358.148px 324.29px;" id="els7sd48lodi" class="animable"></path><path d="M372,306.82s-5.11-6.08-5-3c0,4.5.72,7.3-.39,9.8a24.53,24.53,0,0,1-4.63,6.95l2.38,2.09S371.94,316,372,306.82Z" style="fill: #006FFF; stroke: rgb(38, 50, 56); stroke-linecap: round; stroke-linejoin: round; transform-origin: 366.99px 312.805px;" id="elddfw7m94mkl" class="animable"></path><path d="M362.87,326.32c-.36,2.3-2.82,3.89-5.54,3.56s-4.67-2.44-4.37-4.73,3-4.06,5.7-3.74A4.51,4.51,0,0,1,362.87,326.32Z" style="fill: rgb(255, 255, 255); stroke: rgb(38, 50, 56); stroke-linecap: round; stroke-linejoin: round; transform-origin: 357.909px 325.648px;" id="elxfiux4qopbq" class="animable"></path><polygon points="354.47 324.6 361.33 328.02 360.39 328.74 354.31 325.83 354.47 324.6" style="fill: rgb(255, 255, 255); stroke: rgb(38, 50, 56); stroke-linecap: round; stroke-linejoin: round; transform-origin: 357.82px 326.67px;" id="el0kaytm15v15" class="animable"></polygon><path d="M136.16,341c1.1.15,54.08,2,60.5,3.69,14.26,3.82,34.33,24.25,54.9,26.72a74.8,74.8,0,0,0,24.47-1" style="fill: none; stroke: rgb(153, 153, 153); stroke-linecap: round; stroke-linejoin: round; transform-origin: 206.095px 356.49px;" id="eljtxiuohuujs" class="animable"></path><path d="M271.81,347c-2.88,10.8-.74,21.46,4.67,31.57" style="fill: none; stroke: rgb(153, 153, 153); stroke-linecap: round; stroke-linejoin: round; transform-origin: 273.503px 362.785px;" id="el90pilcsv3j" class="animable"></path><path d="M134.79,332.12a22.11,22.11,0,0,0,2.76,13.74" style="fill: none; stroke: rgb(153, 153, 153); stroke-linecap: round; stroke-linejoin: round; transform-origin: 136.085px 338.99px;" id="elwu6wo6z8m9" class="animable"></path><path d="M165.94,353.35s5,7.9,8.94,6.16" style="fill: none; stroke: rgb(153, 153, 153); stroke-linecap: round; stroke-linejoin: round; transform-origin: 170.41px 356.555px;" id="elllqbg1toq8i" class="animable"></path></g><g id="freepik--coffee-table--inject-2" class="animable" style="transform-origin: 419.062px 363.595px;"><polygon points="427.65 355.12 427.65 355.15 427.64 357.9 427.48 431.59 412.62 431.59 415.65 357.27 415.77 354.54 415.86 352.23 427.65 355.12" style="fill: rgb(255, 255, 255); stroke: rgb(38, 50, 56); stroke-linecap: round; stroke-linejoin: round; transform-origin: 420.135px 391.91px;" id="elo7alug9c78f" class="animable"></polygon><polygon points="444.08 431.59 429.23 431.59 429.07 357.91 429.06 355.16 429.06 355.12 440.85 352.23 440.95 354.64 441.06 357.38 444.08 431.59" style="fill: rgb(255, 255, 255); stroke: rgb(38, 50, 56); stroke-linecap: round; stroke-linejoin: round; transform-origin: 436.57px 391.91px;" id="ellmkvt2bzs8f" class="animable"></polygon><ellipse cx="428.93" cy="352.14" rx="29.04" ry="5.77" style="fill: rgb(255, 255, 255); stroke: rgb(38, 50, 56); stroke-linecap: round; stroke-linejoin: round; transform-origin: 428.93px 352.14px;" id="elek3ey5hhxxa" class="animable"></ellipse><path d="M458,349.39c0,3.19-13,5.77-29,5.77s-29.05-2.58-29.05-5.77,13-5.76,29.05-5.76S458,346.21,458,349.39Z" style="fill: rgb(255, 255, 255); stroke: rgb(38, 50, 56); stroke-linecap: round; stroke-linejoin: round; transform-origin: 428.975px 349.395px;" id="elomzcl92qkd" class="animable"></path><path d="M440.58,337.56a2.6,2.6,0,0,0-.58-1,2.56,2.56,0,0,0-2.51-.64c-.16,0-.16,0-.22-.14a2.05,2.05,0,0,0-.16-.41,2.81,2.81,0,0,0-.78-.83,6.14,6.14,0,0,0-1.34-.77,12.67,12.67,0,0,0-1.66-.51,20.52,20.52,0,0,0-8.62-.16c-.27.05-.53.14-.8.2A7.8,7.8,0,0,0,422,334a5,5,0,0,0-1.68,1.23,1.56,1.56,0,0,0-.33.67,3.51,3.51,0,0,0-.06,1.07c.05.44.07.95.14,1.38.15.94.31,1.86.5,2.78.12.55.27,1.08.41,1.62a9.93,9.93,0,0,0,.37,1.13l.16.42c.19.52.39,1,.63,1.55.11.24.23.47.35.71s.08.19.13.28a3.65,3.65,0,0,1,.14.35,1.24,1.24,0,0,0,.51.48,6.14,6.14,0,0,0,1.6.58,15.24,15.24,0,0,0,2.13.34,18.82,18.82,0,0,0,2,0,14.44,14.44,0,0,0,3.81-.5,4,4,0,0,0,1.34-.57,1.12,1.12,0,0,0,.45-.6c.06-.15.13-.29.2-.43l0-.07c.09-.19.21-.38.29-.58a.52.52,0,0,1,.33-.3,6.19,6.19,0,0,0,2.15-1.14,6.47,6.47,0,0,0,.57-.47,3.33,3.33,0,0,0,.39-.36l.33-.32a7.31,7.31,0,0,0,1.22-1.71,8.61,8.61,0,0,0,.53-1.5,4.8,4.8,0,0,0,.19-1.07A3.54,3.54,0,0,0,440.58,337.56Zm-18.88-1.37s0,0,0-.05h0l.11-.12h0l.06-.06.07,0a1.3,1.3,0,0,1,.23-.18h0l.25-.15.15-.1.43-.2h0c.18-.08.35-.15.53-.21h0l.51-.17c.37-.1.75-.18,1.13-.26l.66-.11.15,0,.28,0,.3,0h0l.25,0,.47,0h.1l.33,0h1.34a17.16,17.16,0,0,1,1.9.13,16.24,16.24,0,0,1,2,.35l.6.18a1.75,1.75,0,0,1,.32.12,1.88,1.88,0,0,1,.3.12l.17.08.16.08h0l.15.1.16.09.19.13s0,0,0,0l.06.07a1,1,0,0,1,.18.17l0,0,.07.07a1.57,1.57,0,0,1,.24.34,1.09,1.09,0,0,1-.17.13h0l-.08.05h0l-.08,0a2.54,2.54,0,0,1-.38.16l-.06,0a1.72,1.72,0,0,1-.29.11.13.13,0,0,1-.08,0h0l-.4.14-.42.11-.3.07-.07,0h0a1.05,1.05,0,0,1-.24.06l-.11,0-.4.08h0l-.1,0a.07.07,0,0,1-.06,0l-.18,0-.46,0h-.07a.65.65,0,0,1-.2,0l-.6.05-1.28.1h-1.68a14.45,14.45,0,0,1-1.47-.06l-.42,0c-.3,0-.6-.06-.9-.11l-.09,0h-.08l-.26,0-.46-.09-.33-.07-.17,0h0l-.47-.13h0l-.47-.16h0l-.46-.2a4.16,4.16,0,0,1-.47-.24l-.17-.12,0,0h0l.1-.12S421.66,336.21,421.7,336.19Zm16.77,4a7.06,7.06,0,0,1-.9,1.8,7.36,7.36,0,0,1-1.24,1.53l-.33.27-.17.16a1.12,1.12,0,0,0,.1-.16,6.44,6.44,0,0,0,.4-1.12c.23-.9.46-1.8.61-2.72.12-.71.26-1.41.35-2.14l.32,0a1.08,1.08,0,0,1,.91.8A2.59,2.59,0,0,1,438.47,340.2Z" style="fill: rgb(255, 255, 255); stroke: rgb(38, 50, 56); stroke-linecap: round; stroke-linejoin: round; transform-origin: 430.359px 340.668px;" id="elxzf1jrthhgg" class="animable"></path><g id="el8fabegtepze"><path d="M440.58,337.56a2.6,2.6,0,0,0-.58-1,2.56,2.56,0,0,0-2.51-.64c-.16,0-.16,0-.22-.14a2.05,2.05,0,0,0-.16-.41,2.81,2.81,0,0,0-.78-.83,6.14,6.14,0,0,0-1.34-.77,12.67,12.67,0,0,0-1.66-.51,20.52,20.52,0,0,0-8.62-.16c-.27.05-.53.14-.8.2A7.8,7.8,0,0,0,422,334a5,5,0,0,0-1.68,1.23,1.56,1.56,0,0,0-.33.67,3.51,3.51,0,0,0-.06,1.07c.05.44.07.95.14,1.38.15.94.31,1.86.5,2.78.12.55.27,1.08.41,1.62a9.93,9.93,0,0,0,.37,1.13l.16.42c.19.52.39,1,.63,1.55.11.24.23.47.35.71s.08.19.13.28a3.65,3.65,0,0,1,.14.35,1.24,1.24,0,0,0,.51.48,6.14,6.14,0,0,0,1.6.58,15.24,15.24,0,0,0,2.13.34,18.82,18.82,0,0,0,2,0,14.44,14.44,0,0,0,3.81-.5,4,4,0,0,0,1.34-.57,1.12,1.12,0,0,0,.45-.6c.06-.15.13-.29.2-.43l0-.07c.09-.19.21-.38.29-.58a.52.52,0,0,1,.33-.3,6.19,6.19,0,0,0,2.15-1.14,6.47,6.47,0,0,0,.57-.47,3.33,3.33,0,0,0,.39-.36l.33-.32a7.31,7.31,0,0,0,1.22-1.71,8.61,8.61,0,0,0,.53-1.5,4.8,4.8,0,0,0,.19-1.07A3.54,3.54,0,0,0,440.58,337.56Zm-18.88-1.37s0,0,0-.05h0l.11-.12h0l.06-.06.07,0a1.3,1.3,0,0,1,.23-.18h0l.25-.15.15-.1.43-.2h0c.18-.08.35-.15.53-.21h0l.51-.17c.37-.1.75-.18,1.13-.26l.66-.11.15,0,.28,0,.3,0h0l.25,0,.47,0h.1l.33,0h1.34a17.16,17.16,0,0,1,1.9.13,16.24,16.24,0,0,1,2,.35l.6.18a1.75,1.75,0,0,1,.32.12,1.88,1.88,0,0,1,.3.12l.17.08.16.08h0l.15.1.16.09.19.13s0,0,0,0l.06.07a1,1,0,0,1,.18.17l0,0,.07.07a1.57,1.57,0,0,1,.24.34,1.09,1.09,0,0,1-.17.13h0l-.08.05h0l-.08,0a2.54,2.54,0,0,1-.38.16l-.06,0a1.72,1.72,0,0,1-.29.11.13.13,0,0,1-.08,0h0l-.4.14-.42.11-.3.07-.07,0h0a1.05,1.05,0,0,1-.24.06l-.11,0-.4.08h0l-.1,0a.07.07,0,0,1-.06,0l-.18,0-.46,0h-.07a.65.65,0,0,1-.2,0l-.6.05-1.28.1h-1.68a14.45,14.45,0,0,1-1.47-.06l-.42,0c-.3,0-.6-.06-.9-.11l-.09,0h-.08l-.26,0-.46-.09-.33-.07-.17,0h0l-.47-.13h0l-.47-.16h0l-.46-.2a4.16,4.16,0,0,1-.47-.24l-.17-.12,0,0h0l.1-.12S421.66,336.21,421.7,336.19Zm16.77,4a7.06,7.06,0,0,1-.9,1.8,7.36,7.36,0,0,1-1.24,1.53l-.33.27-.17.16a1.12,1.12,0,0,0,.1-.16,6.44,6.44,0,0,0,.4-1.12c.23-.9.46-1.8.61-2.72.12-.71.26-1.41.35-2.14l.32,0a1.08,1.08,0,0,1,.91.8A2.59,2.59,0,0,1,438.47,340.2Z" style="fill: rgb(255, 255, 255); stroke: rgb(38, 50, 56); stroke-linecap: round; stroke-linejoin: round; opacity: 0.8; transform-origin: 430.359px 340.668px;" class="animable" id="elw7vmrw0j1me"></path></g><g id="elf5ndbexjcx8"><path d="M435.1,335.71s0,0,0,0a1.09,1.09,0,0,0-.17-.13l-.33-.19h0l-.16-.08-.17-.08a1.88,1.88,0,0,0-.3-.12l-.32-.12-.6-.18a16.24,16.24,0,0,0-2-.35,17.16,17.16,0,0,0-1.9-.13h-1.34l-.33,0h-.1l-.47,0-.25,0h0l-.3,0-.28,0-.15,0-.66.11c-.38.08-.76.16-1.13.26l-.51.17c-.18.06-.35.13-.53.21l-.42.2-.19.1-.25.15h0l-.23.18-.13.11-.12.12-.05.05s-.05,0-.05.06l-.1.12,0,0,.17.12a4.16,4.16,0,0,0,.47.24l.46.2h0l.47.16h0l.47.13h0l.17,0,.33.07.46.09.26,0H425l.65.09.34,0,.42,0a14.45,14.45,0,0,0,1.47.06h1.68l1.27-.09c.2,0,.41,0,.61-.06a.65.65,0,0,0,.2,0h.07l.44-.05.2,0a.07.07,0,0,0,.06,0l.1,0h0l.4-.08.11,0,.27-.06.07,0,.3-.07.42-.11.4-.14h0a.13.13,0,0,0,.08,0,1.72,1.72,0,0,0,.29-.11l.06,0a2.54,2.54,0,0,0,.38-.16l.08,0h0l.08-.05h0a1.09,1.09,0,0,0,.17-.13h0A2.05,2.05,0,0,0,435.1,335.71Z" style="fill: rgb(255, 255, 255); stroke: rgb(38, 50, 56); stroke-linecap: round; stroke-linejoin: round; opacity: 0.7; transform-origin: 428.59px 335.83px;" class="animable" id="elq4sps7j6mgc"></path></g><path d="M435.66,336.39a2.18,2.18,0,0,0-.77-.81,5.07,5.07,0,0,0-.65-.35,6.87,6.87,0,0,0-1.23-.42,14.5,14.5,0,0,0-1.95-.35,17.51,17.51,0,0,0-1.91-.13,15.46,15.46,0,0,0-1.67,0,20.88,20.88,0,0,0-2.23.27,10.21,10.21,0,0,0-2.17.64,3.71,3.71,0,0,0-1.55,1.09l.05,0,.17.12a5.19,5.19,0,0,0,.47.25,8.86,8.86,0,0,0,1.94.59l.47.09.26,0c.49.08,1,.14,1.49.18a14.45,14.45,0,0,0,1.47.06c.38,0,.76,0,1.14,0h.32c.5,0,1-.06,1.5-.1s.89-.07,1.33-.14,1-.2,1.51-.32a7.53,7.53,0,0,0,1.65-.58A1.13,1.13,0,0,0,435.66,336.39Z" style="fill: rgb(255, 255, 255); stroke: rgb(38, 50, 56); stroke-linecap: round; stroke-linejoin: round; transform-origin: 428.595px 335.964px;" id="elgez1gylio3b" class="animable"></path><path d="M435.66,336.39a2.18,2.18,0,0,0-.77-.81,5.07,5.07,0,0,0-.65-.35,6.87,6.87,0,0,0-1.23-.42,14.5,14.5,0,0,0-1.95-.35,17.51,17.51,0,0,0-1.91-.13,15.46,15.46,0,0,0-1.67,0,20.88,20.88,0,0,0-2.23.27,10.21,10.21,0,0,0-2.17.64,3.71,3.71,0,0,0-1.55,1.09l.05,0,.17.12a5.19,5.19,0,0,0,.47.25,8.86,8.86,0,0,0,1.94.59l.47.09.26,0c.49.08,1,.14,1.49.18a14.45,14.45,0,0,0,1.47.06c.38,0,.76,0,1.14,0h.32c.5,0,1-.06,1.5-.1s.89-.07,1.33-.14,1-.2,1.51-.32a7.53,7.53,0,0,0,1.65-.58A1.13,1.13,0,0,0,435.66,336.39Z" style="fill: rgb(255, 255, 255); stroke: rgb(38, 50, 56); stroke-linecap: round; stroke-linejoin: round; transform-origin: 428.595px 335.964px;" id="elvy2uwfijt79" class="animable"></path><path d="M435.67,336.39a1,1,0,0,1-.36.22,7.88,7.88,0,0,1-1.65.58c-.5.12-1,.25-1.51.33s-.88.09-1.33.12-1,.09-1.49.11H429l-1.14,0a14.14,14.14,0,0,1-1.46-.06c-.5,0-1-.09-1.5-.18l-.26,0-.46-.09a8.31,8.31,0,0,1-1.95-.6,4.16,4.16,0,0,1-.47-.24l-.17-.12,0,0a3.87,3.87,0,0,1,1.55-1.09,10.3,10.3,0,0,1,2.18-.64,18.19,18.19,0,0,1,2.22-.27c.6,0,1.07-.06,1.67,0a17.51,17.51,0,0,1,1.91.13,16.43,16.43,0,0,1,2,.35,7.32,7.32,0,0,1,1.22.42,5.19,5.19,0,0,1,.66.35A2.29,2.29,0,0,1,435.67,336.39Z" style="fill: rgb(38, 50, 56); stroke: rgb(38, 50, 56); stroke-linecap: round; stroke-linejoin: round; transform-origin: 428.63px 336.092px;" id="eldb5vkakvwmc" class="animable"></path><path d="M433.43,324.35l0,0a10.82,10.82,0,0,0-3.55-1.67.43.43,0,0,1-.09-.79c1.81-1,3.48-2.46,3.14-4.39a5,5,0,0,0-2-2.75,25.29,25.29,0,0,0-11.51-5.19c-5.28-.9-10.95-.15-15.8-2.4-.62-2,2.16-3.19,3.11-5s-.25-4.27-2.06-5.34-4-1.13-6.13-1.17c-.91,0-1.84,0-2.78,0H395l-.94,0c-.44,0-.88,0-1.32.08l-1,.1c-.69.07-1.38.17-2.06.3-.34.07-.68.14-1,.23a3.15,3.15,0,0,0-.44.11,6.36,6.36,0,0,0-.66.19,14.48,14.48,0,0,0-3.13,1.34l0,0a7.94,7.94,0,0,0-.78.5,6.7,6.7,0,0,0-.6.45,9,9,0,0,0-.88.76c-1.3,1.24-2.34,3-2,4.76a6,6,0,0,0,1.65,2.84c3.42,3.72,8.26,5.81,13.13,7.15s9.9,2,14.74,3.47c-1.64-.18-2.52,2.22-1.64,3.61s2.63,1.92,4.24,2.27a64.66,64.66,0,0,0,11.18,1.43c-1.85.34-2.29,3.07-1.14,4.55s3.16,2,5,2.24a11.58,11.58,0,0,0,4.69,0c.76-.2,1.12-.87.58-.87-2.19,0-4-1.2-4-2.67s1.78-2.68,4-2.68h.3A.85.85,0,0,0,433.43,324.35Z" style="fill: rgb(255, 255, 255); transform-origin: 406.908px 313.96px;" id="elrrmohcs3dh" class="animable"></path><g id="elfiyp1mkcwu7"><path d="M433.43,324.35l0,0a10.82,10.82,0,0,0-3.55-1.67.43.43,0,0,1-.09-.79c1.81-1,3.48-2.46,3.14-4.39a5,5,0,0,0-2-2.75,25.29,25.29,0,0,0-11.51-5.19c-5.28-.9-10.95-.15-15.8-2.4-.62-2,2.16-3.19,3.11-5s-.25-4.27-2.06-5.34-4-1.13-6.13-1.17c-.91,0-1.84,0-2.78,0H395l-.94,0c-.44,0-.88,0-1.32.08l-1,.1c-.69.07-1.38.17-2.06.3-.34.07-.68.14-1,.23a3.15,3.15,0,0,0-.44.11,6.36,6.36,0,0,0-.66.19,14.48,14.48,0,0,0-3.13,1.34l0,0a7.94,7.94,0,0,0-.78.5,6.7,6.7,0,0,0-.6.45,9,9,0,0,0-.88.76c-1.3,1.24-2.34,3-2,4.76a6,6,0,0,0,1.65,2.84c3.42,3.72,8.26,5.81,13.13,7.15s9.9,2,14.74,3.47c-1.64-.18-2.52,2.22-1.64,3.61s2.63,1.92,4.24,2.27a64.66,64.66,0,0,0,11.18,1.43c-1.85.34-2.29,3.07-1.14,4.55s3.16,2,5,2.24a11.58,11.58,0,0,0,4.69,0c.76-.2,1.12-.87.58-.87-2.19,0-4-1.2-4-2.67s1.78-2.68,4-2.68h.3A.85.85,0,0,0,433.43,324.35Z" style="fill: rgb(255, 255, 255); opacity: 0.8; transform-origin: 406.908px 313.96px;" class="animable" id="elie9ufqz33x"></path></g><path d="M389.66,296.12c-.34.07-.68.14-1,.23a3.15,3.15,0,0,0-.44.11,6.36,6.36,0,0,0-.66.19l-.34.1m16.64,8.73c.68-1.13,2.2-2.1,2.85-3.37,1-1.87-.25-4.27-2.06-5.34s-4-1.13-6.13-1.17c-.91,0-1.84,0-2.78,0H395l-.94,0c-.44,0-.88,0-1.32.08l-1,.1-.29,0m13.35,11.78c-.4-.14-.8-.31-1.2-.49m29,24.05c-2.19,0-4-1.2-4-2.67s1.78-2.68,4-2.68h.3a.85.85,0,0,0,.58-1.5l0,0a10.82,10.82,0,0,0-3.55-1.67.43.43,0,0,1-.09-.79c1.81-1,3.48-2.46,3.14-4.39a5,5,0,0,0-2-2.75,25.29,25.29,0,0,0-11.51-5.19c-4.26-.73-8.79-.38-12.93-1.4m.45,9.05c.94.23,1.86.48,2.73.75-1.64-.18-2.52,2.22-1.64,3.61s2.63,1.92,4.24,2.27a64.66,64.66,0,0,0,11.18,1.43c-1.85.34-2.46,3.22-1.14,4.55a7.39,7.39,0,0,0,1.93,1.39m-39.41-33.42c-.13.07-.26.14-.38.22l0,0a7.94,7.94,0,0,0-.78.5,6.7,6.7,0,0,0-.6.45,9,9,0,0,0-.88.76c-1.3,1.24-2.34,3-2,4.76a6,6,0,0,0,1.65,2.84c3.42,3.72,8.26,5.84,13.13,7.15,3.2.86,6.39,1.46,9.38,2.11" style="fill: none; stroke: rgb(38, 50, 56); stroke-linecap: round; stroke-linejoin: round; transform-origin: 406.979px 313.365px;" id="elg7nyq9pu6om" class="animable"></path></g><g id="freepik--Floor--inject-2" class="animable" style="transform-origin: 250px 431.59px;"><polyline points="43.22 431.59 413.28 431.59 428.14 431.59 429.89 431.59 444.74 431.59 456.78 431.59" style="fill: none; stroke: rgb(38, 50, 56); stroke-linecap: round; stroke-linejoin: round; transform-origin: 250px 431.59px;" id="elerzuxa8wzrt" class="animable"></polyline></g><defs><clipPath id="freepik--clip-path--inject-2"><path d="M345.82,362.63s-32.25,12.19-58.72,15.86c-9,1.25-15.27,1.5-20,1.09-3.91-13.22-4.23-23.35-3.6-30.09a49.43,49.43,0,0,1,8.3-2.49c.45-3.54,14.64-4.89,34.31-10.67s31.19-5.4,31.19-5.4c8.82-2.05,18.91,3.25,19.72,5S355.9,340,355.9,340C355.16,361.37,345.82,362.63,345.82,362.63Z" style="fill:#92E3A9;stroke:#263238;stroke-linecap:round;stroke-linejoin:round"></path></clipPath></defs><defs>     <filter id="active" height="200%">         <feMorphology in="SourceAlpha" result="DILATED" operator="dilate" radius="2"></feMorphology>                <feFlood flood-color="#32DFEC" flood-opacity="1" result="PINK"></feFlood>        <feComposite in="PINK" in2="DILATED" operator="in" result="OUTLINE"></feComposite>        <feMerge>            <feMergeNode in="OUTLINE"></feMergeNode>            <feMergeNode in="SourceGraphic"></feMergeNode>        </feMerge>    </filter>    <filter id="hover" height="200%">        <feMorphology in="SourceAlpha" result="DILATED" operator="dilate" radius="2"></feMorphology>                <feFlood flood-color="#ff0000" flood-opacity="0.5" result="PINK"></feFlood>        <feComposite in="PINK" in2="DILATED" operator="in" result="OUTLINE"></feComposite>        <feMerge>            <feMergeNode in="OUTLINE"></feMergeNode>            <feMergeNode in="SourceGraphic"></feMergeNode>        </feMerge>            <feColorMatrix type="matrix" values="0   0   0   0   0                0   1   0   0   0                0   0   0   0   0                0   0   0   1   0 "></feColorMatrix>    </filter></defs></svg>