<svg xmlns="http://www.w3.org/2000/svg" viewBox="0 0 500 500"><g id="freepik--background-complete--inject-33"><rect y="382.4" width="500" height="0.25" style="fill:#ebebeb"></rect><rect x="416.78" y="398.49" width="33.12" height="0.25" style="fill:#ebebeb"></rect><rect x="267.86" y="390.76" width="27.36" height="0.25" style="fill:#ebebeb"></rect><rect x="396.59" y="389.21" width="19.19" height="0.25" style="fill:#ebebeb"></rect><rect x="52.46" y="390.89" width="17.15" height="0.25" style="fill:#ebebeb"></rect><rect x="78.51" y="390.89" width="32.38" height="0.25" style="fill:#ebebeb"></rect><rect x="164.78" y="395.11" width="60.37" height="0.25" style="fill:#ebebeb"></rect><path d="M237,337.8H43.91a5.71,5.71,0,0,1-5.7-5.71V60.66A5.71,5.71,0,0,1,43.91,55H237a5.71,5.71,0,0,1,5.71,5.71V332.09A5.71,5.71,0,0,1,237,337.8ZM43.91,55.2a5.46,5.46,0,0,0-5.45,5.46V332.09a5.46,5.46,0,0,0,5.45,5.46H237a5.47,5.47,0,0,0,5.46-5.46V60.66A5.47,5.47,0,0,0,237,55.2Z" style="fill:#ebebeb"></path><path d="M453.31,337.8H260.21a5.72,5.72,0,0,1-5.71-5.71V60.66A5.72,5.72,0,0,1,260.21,55h193.1A5.71,5.71,0,0,1,459,60.66V332.09A5.71,5.71,0,0,1,453.31,337.8ZM260.21,55.2a5.47,5.47,0,0,0-5.46,5.46V332.09a5.47,5.47,0,0,0,5.46,5.46h193.1a5.47,5.47,0,0,0,5.46-5.46V60.66a5.47,5.47,0,0,0-5.46-5.46Z" style="fill:#ebebeb"></path><rect x="31.48" y="73.19" width="100.2" height="224" style="fill:#ebebeb"></rect><path d="M109.9,140.23l-25.6-7.77a2.86,2.86,0,0,0-3.69,2.66L80,157a1.47,1.47,0,0,0,0,.21L78.9,194.92c-3.56-1.77-8.21-1.88-13.1-.12C57,198,50.57,206,51.29,213.07a9.43,9.43,0,0,0,4.47,7.2,13.19,13.19,0,0,0,7.09,1.88,20.89,20.89,0,0,0,7-1.31c8.66-3.14,14.9-10.87,14.51-17.79,0,0,0-.07,0-.11L85.6,161l22,6.68A2.85,2.85,0,0,0,111.3,165l.62-22A2.85,2.85,0,0,0,109.9,140.23Z" style="fill:#fafafa"></path><rect x="30" y="73.19" width="1.48" height="224" transform="translate(61.48 370.37) rotate(180)" style="fill:#e0e0e0"></rect><rect x="144.25" y="73.19" width="100.2" height="224" style="fill:#ebebeb"></rect><path d="M223.5,144.6l-34.08-3a1.33,1.33,0,0,0-1.07.36,1.42,1.42,0,0,0-.47,1l-.61,45-.05,0c-2.83-1.55-7.26-1.22-11.85.87-7.06,3.21-12.06,9.4-11.39,14.1a5.28,5.28,0,0,0,2.8,4,8.87,8.87,0,0,0,4.28,1,18.63,18.63,0,0,0,7.57-1.84c6.91-3.14,11.82-9.14,11.39-13.8,0,0,0-.05,0-.08l.44-31.65,31.25,2.73L221.34,191l-.05,0c-2.83-1.55-7.25-1.22-11.85.87-7.05,3.21-12.05,9.41-11.38,14.1a5.26,5.26,0,0,0,2.8,4,8.83,8.83,0,0,0,4.27,1,18.71,18.71,0,0,0,7.58-1.84c6.91-3.14,11.81-9.14,11.38-13.8,0,0,0,0,0-.08l.45-33.17.22-15.95A1.4,1.4,0,0,0,223.5,144.6Z" style="fill:#fafafa"></path><rect x="142.77" y="73.19" width="1.48" height="224" transform="translate(287.03 370.37) rotate(180)" style="fill:#e0e0e0"></rect><rect x="257.03" y="73.19" width="100.2" height="224" style="fill:#ebebeb"></rect><path d="M335.45,140.23l-25.6-7.77a2.86,2.86,0,0,0-3.69,2.66L305.53,157a1.47,1.47,0,0,0,0,.21l-1.08,37.72c-3.56-1.77-8.21-1.88-13.1-.12C282.5,198,276.12,206,276.84,213.07a9.43,9.43,0,0,0,4.47,7.2,13.19,13.19,0,0,0,7.09,1.88,20.89,20.89,0,0,0,7-1.31c8.66-3.14,14.9-10.87,14.51-17.79,0,0,0-.07,0-.11l1.2-41.94,22,6.68a2.85,2.85,0,0,0,3.69-2.65l.62-22A2.85,2.85,0,0,0,335.45,140.23Z" style="fill:#fafafa"></path><rect x="255.55" y="73.19" width="1.48" height="224" transform="translate(512.58 370.37) rotate(180)" style="fill:#e0e0e0"></rect><rect x="369.8" y="73.19" width="100.2" height="224" style="fill:#ebebeb"></rect><path d="M449.05,144.6l-34.08-3a1.33,1.33,0,0,0-1.07.36,1.42,1.42,0,0,0-.47,1l-.61,45-.05,0c-2.83-1.55-7.26-1.22-11.85.87-7.06,3.21-12.06,9.4-11.39,14.1a5.28,5.28,0,0,0,2.8,4,8.87,8.87,0,0,0,4.28,1,18.63,18.63,0,0,0,7.57-1.84c6.91-3.14,11.82-9.14,11.39-13.8,0,0,0-.05,0-.08l.44-31.65,31.25,2.73L446.89,191l-.05,0c-2.83-1.55-7.25-1.22-11.85.87-7.05,3.21-12.06,9.41-11.38,14.1a5.26,5.26,0,0,0,2.8,4,8.83,8.83,0,0,0,4.27,1,18.71,18.71,0,0,0,7.58-1.84c6.91-3.14,11.81-9.14,11.38-13.8,0,0,0,0,0-.08l.45-33.17.22-15.95A1.41,1.41,0,0,0,449.05,144.6Z" style="fill:#fafafa"></path><rect x="368.32" y="73.19" width="1.48" height="224" transform="translate(738.13 370.37) rotate(180)" style="fill:#e0e0e0"></rect><rect x="60.15" y="321.56" width="10.44" height="56.82" style="fill:#f0f0f0"></rect><rect x="66.56" y="378.37" width="367.1" height="4.02" style="fill:#f0f0f0"></rect><rect x="70.59" y="321.56" width="369.48" height="56.82" transform="translate(510.65 699.93) rotate(180)" style="fill:#f5f5f5"></rect><rect x="72.91" y="325.32" width="364.83" height="20.83" transform="translate(510.65 671.46) rotate(180)" style="fill:#f0f0f0"></rect><rect x="72.91" y="349.95" width="364.83" height="20.83" transform="translate(510.65 720.72) rotate(180)" style="fill:#f0f0f0"></rect><rect x="70.59" y="314.56" width="371.48" height="7" style="fill:#f0f0f0"></rect><rect x="58.15" y="314.56" width="12.44" height="7" transform="translate(128.74 636.11) rotate(180)" style="fill:#e6e6e6"></rect></g><g id="freepik--Shadow--inject-33"><ellipse id="freepik--path--inject-33" cx="250" cy="416.24" rx="193.89" ry="11.32" style="fill:#f5f5f5"></ellipse></g><g id="freepik--Platform--inject-33"><rect x="361.12" y="195.07" width="10.62" height="67.68" style="fill:#263238"></rect><polygon points="397.68 152.56 396.68 152.56 396.68 143.52 372.36 143.52 372.36 142.52 397.68 142.52 397.68 152.56" style="fill:#006FFF"></polygon><rect x="357.52" y="142.52" width="7.42" height="1" style="fill:#006FFF"></rect><rect x="330.6" y="146.02" width="63.58" height="68.76" style="fill:#006FFF"></rect><rect x="375.95" y="146.02" width="18.23" height="68.76" style="opacity:0.30000000000000004"></rect><circle cx="353.28" cy="191.9" r="16.96" style="opacity:0.30000000000000004"></circle><circle cx="353.28" cy="191.9" r="13.02" transform="translate(-32.22 306.01) rotate(-45)" style="opacity:0.30000000000000004"></circle><circle cx="353.28" cy="161.06" r="6.99" style="opacity:0.30000000000000004"></circle><path d="M356.21,161.06a2.94,2.94,0,1,1-2.93-2.94A2.93,2.93,0,0,1,356.21,161.06Z" style="opacity:0.30000000000000004"></path><path d="M415.64,242.6a3.09,3.09,0,0,1,3.09,3.09v12a3.09,3.09,0,0,1-3.09,3.09H382.31a3.09,3.09,0,0,1-3.09-3.09v-12a3.09,3.09,0,0,1,3.09-3.09h33.33m0-2H382.31a5.1,5.1,0,0,0-5.09,5.09v12a5.1,5.1,0,0,0,5.09,5.09h33.33a5.1,5.1,0,0,0,5.09-5.09v-12a5.1,5.1,0,0,0-5.09-5.09Z" style="fill:#263238"></path><polygon points="404.01 262.75 216.95 262.75 216.95 257.53 422.67 235.79 422.67 241.01 404.01 262.75" style="fill:#006FFF"></polygon><polygon points="404.01 262.75 216.95 262.75 216.95 257.53 422.67 235.79 422.67 241.01 404.01 262.75" style="opacity:0.30000000000000004"></polygon><polygon points="404.01 257.53 216.95 257.53 235.61 235.79 422.67 235.79 404.01 257.53" style="fill:#006FFF"></polygon><polygon points="242.49 239.23 236.07 239.23 223.39 254 229.81 254 242.49 239.23" style="fill:#fff"></polygon><polygon points="249.91 239.23 243.49 239.23 230.81 254 237.23 254 249.91 239.23" style="fill:#fff"></polygon><polygon points="257.32 239.23 250.91 239.23 238.23 254 244.64 254 257.32 239.23" style="fill:#fff"></polygon><polygon points="264.74 239.23 258.32 239.23 245.64 254 252.06 254 264.74 239.23" style="fill:#fff"></polygon><polygon points="272.15 239.23 265.74 239.23 253.06 254 259.48 254 272.15 239.23" style="fill:#fff"></polygon><polygon points="279.57 239.23 273.15 239.23 260.48 254 266.89 254 279.57 239.23" style="fill:#fff"></polygon><polygon points="286.99 239.23 280.57 239.23 267.89 254 274.31 254 286.99 239.23" style="fill:#fff"></polygon><polygon points="294.4 239.23 287.99 239.23 275.31 254 281.73 254 294.4 239.23" style="fill:#fff"></polygon><polygon points="301.82 239.23 295.4 239.23 282.73 254 289.14 254 301.82 239.23" style="fill:#fff"></polygon><polygon points="309.24 239.23 302.82 239.23 290.14 254 296.56 254 309.24 239.23" style="fill:#fff"></polygon><polygon points="316.65 239.23 310.24 239.23 297.56 254 303.98 254 316.65 239.23" style="fill:#fff"></polygon><polygon points="324.07 239.23 317.65 239.23 304.98 254 311.39 254 324.07 239.23" style="fill:#fff"></polygon><polygon points="331.49 239.23 325.07 239.23 312.39 254 318.81 254 331.49 239.23" style="fill:#fff"></polygon><polygon points="338.9 239.23 332.49 239.23 319.81 254 326.23 254 338.9 239.23" style="fill:#fff"></polygon><polygon points="346.32 239.23 339.9 239.23 327.23 254 333.64 254 346.32 239.23" style="fill:#fff"></polygon><polygon points="353.74 239.23 347.32 239.23 334.64 254 341.06 254 353.74 239.23" style="fill:#fff"></polygon><polygon points="361.15 239.23 354.74 239.23 342.06 254 348.48 254 361.15 239.23" style="fill:#fff"></polygon><polygon points="368.57 239.23 362.15 239.23 349.48 254 355.89 254 368.57 239.23" style="fill:#fff"></polygon><polygon points="375.99 239.23 369.57 239.23 356.89 254 363.31 254 375.99 239.23" style="fill:#fff"></polygon><polygon points="383.4 239.23 376.99 239.23 364.31 254 370.73 254 383.4 239.23" style="fill:#fff"></polygon><polygon points="390.82 239.23 384.4 239.23 371.73 254 378.14 254 390.82 239.23" style="fill:#fff"></polygon><polygon points="398.24 239.23 391.82 239.23 379.14 254 385.56 254 398.24 239.23" style="fill:#fff"></polygon><polygon points="405.65 239.23 399.24 239.23 386.56 254 392.98 254 405.65 239.23" style="fill:#fff"></polygon><polygon points="413.07 239.23 406.65 239.23 393.98 254 400.39 254 413.07 239.23" style="fill:#fff"></polygon><polygon points="244.57 239.23 241.4 239.23 233.13 248.86 236.31 248.86 244.57 239.23" style="fill:#263238"></polygon><polygon points="259.41 239.23 256.24 239.23 247.97 248.86 251.14 248.86 259.41 239.23" style="fill:#263238"></polygon><polygon points="274.24 239.23 271.07 239.23 262.8 248.86 265.97 248.86 274.24 239.23" style="fill:#263238"></polygon><polygon points="289.07 239.23 285.9 239.23 277.63 248.86 280.81 248.86 289.07 239.23" style="fill:#263238"></polygon><polygon points="303.91 239.23 300.74 239.23 292.47 248.86 295.64 248.86 303.91 239.23" style="fill:#263238"></polygon><polygon points="318.74 239.23 315.57 239.23 307.3 248.86 310.47 248.86 318.74 239.23" style="fill:#263238"></polygon><polygon points="333.57 239.23 330.4 239.23 322.13 248.86 325.31 248.86 333.57 239.23" style="fill:#263238"></polygon><polygon points="348.41 239.23 345.24 239.23 336.97 248.86 340.14 248.86 348.41 239.23" style="fill:#263238"></polygon><polygon points="363.24 239.23 360.07 239.23 351.8 248.86 354.97 248.86 363.24 239.23" style="fill:#263238"></polygon><polygon points="378.07 239.23 374.9 239.23 366.63 248.86 369.81 248.86 378.07 239.23" style="fill:#263238"></polygon><polygon points="392.91 239.23 389.74 239.23 381.47 248.86 384.64 248.86 392.91 239.23" style="fill:#263238"></polygon><polygon points="251.99 239.23 248.82 239.23 240.55 248.86 243.72 248.86 251.99 239.23" style="fill:#263238"></polygon><polygon points="266.82 239.23 263.65 239.23 255.38 248.86 258.56 248.86 266.82 239.23" style="fill:#263238"></polygon><polygon points="281.66 239.23 278.49 239.23 270.22 248.86 273.39 248.86 281.66 239.23" style="fill:#263238"></polygon><polygon points="296.49 239.23 293.32 239.23 285.05 248.86 288.22 248.86 296.49 239.23" style="fill:#263238"></polygon><polygon points="311.32 239.23 308.15 239.23 299.88 248.86 303.06 248.86 311.32 239.23" style="fill:#263238"></polygon><polygon points="326.16 239.23 322.99 239.23 314.72 248.86 317.89 248.86 326.16 239.23" style="fill:#263238"></polygon><polygon points="340.99 239.23 337.82 239.23 329.55 248.86 332.72 248.86 340.99 239.23" style="fill:#263238"></polygon><polygon points="355.82 239.23 352.65 239.23 344.38 248.86 347.56 248.86 355.82 239.23" style="fill:#263238"></polygon><polygon points="370.66 239.23 367.49 239.23 359.22 248.86 362.39 248.86 370.66 239.23" style="fill:#263238"></polygon><polygon points="385.49 239.23 382.32 239.23 374.05 248.86 377.22 248.86 385.49 239.23" style="fill:#263238"></polygon><polygon points="407.74 239.23 404.57 239.23 396.3 248.86 399.47 248.86 407.74 239.23" style="fill:#263238"></polygon><polygon points="400.32 239.23 397.15 239.23 388.88 248.86 392.06 248.86 400.32 239.23" style="fill:#263238"></polygon><rect x="233.13" y="247.58" width="3.17" height="1.28"></rect><rect x="247.97" y="247.58" width="3.17" height="1.28"></rect><rect x="262.8" y="247.58" width="3.17" height="1.28"></rect><rect x="277.63" y="247.58" width="3.17" height="1.28"></rect><rect x="292.47" y="247.58" width="3.17" height="1.28"></rect><rect x="307.3" y="247.58" width="3.17" height="1.28"></rect><rect x="322.13" y="247.58" width="3.17" height="1.28"></rect><rect x="336.97" y="247.58" width="3.17" height="1.28"></rect><rect x="351.8" y="247.58" width="3.17" height="1.28"></rect><rect x="366.63" y="247.58" width="3.17" height="1.28"></rect><rect x="381.47" y="247.58" width="3.17" height="1.28"></rect><rect x="240.55" y="247.58" width="3.17" height="1.28"></rect><rect x="255.38" y="247.58" width="3.17" height="1.28"></rect><rect x="270.22" y="247.58" width="3.17" height="1.28"></rect><rect x="285.05" y="247.58" width="3.17" height="1.28"></rect><rect x="299.88" y="247.58" width="3.17" height="1.28"></rect><rect x="314.72" y="247.58" width="3.17" height="1.28"></rect><rect x="329.55" y="247.58" width="3.17" height="1.28"></rect><rect x="344.38" y="247.58" width="3.17" height="1.28"></rect><rect x="359.22" y="247.58" width="3.17" height="1.28"></rect><rect x="374.05" y="247.58" width="3.17" height="1.28"></rect><rect x="396.3" y="247.58" width="3.17" height="1.28"></rect><rect x="388.88" y="247.58" width="3.17" height="1.28"></rect><polygon points="244.57 239.23 241.4 239.23 233.13 247.58 236.31 247.58 244.57 239.23" style="fill:#263238"></polygon><polygon points="259.41 239.23 256.24 239.23 247.97 247.58 251.14 247.58 259.41 239.23" style="fill:#263238"></polygon><polygon points="274.24 239.23 271.07 239.23 262.8 247.58 265.97 247.58 274.24 239.23" style="fill:#263238"></polygon><polygon points="289.07 239.23 285.9 239.23 277.63 247.58 280.81 247.58 289.07 239.23" style="fill:#263238"></polygon><polygon points="303.91 239.23 300.74 239.23 292.47 247.58 295.64 247.58 303.91 239.23" style="fill:#263238"></polygon><polygon points="318.74 239.23 315.57 239.23 307.3 247.58 310.47 247.58 318.74 239.23" style="fill:#263238"></polygon><polygon points="333.57 239.23 330.4 239.23 322.13 247.58 325.31 247.58 333.57 239.23" style="fill:#263238"></polygon><polygon points="348.41 239.23 345.24 239.23 336.97 247.58 340.14 247.58 348.41 239.23" style="fill:#263238"></polygon><polygon points="363.24 239.23 360.07 239.23 351.8 247.58 354.97 247.58 363.24 239.23" style="fill:#263238"></polygon><polygon points="378.07 239.23 374.9 239.23 366.63 247.58 369.81 247.58 378.07 239.23" style="fill:#263238"></polygon><polygon points="392.91 239.23 389.74 239.23 381.47 247.58 384.64 247.58 392.91 239.23" style="fill:#263238"></polygon><polygon points="251.99 239.23 248.82 239.23 240.55 247.58 243.72 247.58 251.99 239.23" style="fill:#263238"></polygon><polygon points="266.82 239.23 263.65 239.23 255.38 247.58 258.56 247.58 266.82 239.23" style="fill:#263238"></polygon><polygon points="281.66 239.23 278.49 239.23 270.22 247.58 273.39 247.58 281.66 239.23" style="fill:#263238"></polygon><polygon points="296.49 239.23 293.32 239.23 285.05 247.58 288.22 247.58 296.49 239.23" style="fill:#263238"></polygon><polygon points="311.32 239.23 308.15 239.23 299.88 247.58 303.06 247.58 311.32 239.23" style="fill:#263238"></polygon><polygon points="326.16 239.23 322.99 239.23 314.72 247.58 317.89 247.58 326.16 239.23" style="fill:#263238"></polygon><polygon points="340.99 239.23 337.82 239.23 329.55 247.58 332.72 247.58 340.99 239.23" style="fill:#263238"></polygon><polygon points="355.82 239.23 352.65 239.23 344.38 247.58 347.56 247.58 355.82 239.23" style="fill:#263238"></polygon><polygon points="370.66 239.23 367.49 239.23 359.22 247.58 362.39 247.58 370.66 239.23" style="fill:#263238"></polygon><polygon points="385.49 239.23 382.32 239.23 374.05 247.58 377.22 247.58 385.49 239.23" style="fill:#263238"></polygon><polygon points="407.74 239.23 404.57 239.23 396.3 247.58 399.47 247.58 407.74 239.23" style="fill:#263238"></polygon><polygon points="400.32 239.23 397.15 239.23 388.88 247.58 392.06 247.58 400.32 239.23" style="fill:#263238"></polygon><polygon points="422.67 241.01 404.01 262.75 404.01 257.53 422.67 235.79 422.67 241.01" style="opacity:0.30000000000000004"></polygon><path d="M162,221h0a4.45,4.45,0,0,1-4.5-5.22l7.88-56.9a6.23,6.23,0,0,1,6-5.22h0a4.45,4.45,0,0,1,4.5,5.22l-7.88,56.9A6.23,6.23,0,0,1,162,221Z" style="fill:#263238"></path><polygon points="238.71 206.34 92.48 206.34 101.11 120.98 247.33 120.98 238.71 206.34" style="fill:#006FFF"></polygon><polygon points="99 120.98 90.37 206.34 92.48 206.34 101.11 120.98 99 120.98" style="fill:#006FFF"></polygon><polygon points="99 120.98 90.37 206.34 92.48 206.34 101.11 120.98 99 120.98" style="fill:#263238;opacity:0.30000000000000004"></polygon><polygon points="94.69 204.34 102.91 122.98 245.13 122.98 236.91 204.34 94.69 204.34" style="fill:#263238"></polygon><polygon points="148.87 171.65 102.99 171.65 102.3 178.42 148.19 178.42 148.87 171.65" style="fill:#fff"></polygon><polygon points="158.69 178.42 130.47 178.42 129.79 185.19 158.01 185.19 158.69 178.42" style="fill:#006FFF"></polygon><polygon points="233.84 185.19 210.02 185.19 209.34 191.96 233.16 191.96 233.84 185.19" style="fill:#fff"></polygon><polygon points="192.7 191.96 146.82 191.96 147.5 185.19 193.38 185.19 192.7 191.96" style="fill:#006FFF"></polygon><polygon points="203.89 185.19 175.67 185.19 176.35 178.42 204.57 178.42 203.89 185.19" style="fill:#fff"></polygon><polygon points="217.85 178.42 189.63 178.42 190.31 171.65 218.54 171.65 217.85 178.42" style="fill:#006FFF"></polygon><polygon points="120.43 133.79 119.45 133.79 116.56 162.45 117.53 162.45 120.43 133.79" style="fill:#fff"></polygon><polygon points="119.26 135.75 118.28 135.75 115.78 160.49 116.75 160.49 119.26 135.75" style="fill:#fff"></polygon><polygon points="121.07 137.03 120.1 137.03 117.86 159.2 118.83 159.2 121.07 137.03" style="fill:#fff"></polygon><polygon points="122.94 137.8 121.97 137.8 119.88 158.44 120.85 158.44 122.94 137.8" style="fill:#fff"></polygon><polygon points="121.82 139.21 120.85 139.21 119.05 157.03 120.02 157.03 121.82 139.21" style="fill:#fff"></polygon><polygon points="123.67 140.14 122.7 140.14 121.09 156.1 122.06 156.1 123.67 140.14" style="fill:#fff"></polygon><polygon points="126.06 155.01 127.03 155.01 128.42 141.23 127.45 141.23 126.06 155.01" style="fill:#fff"></polygon><polygon points="126.76 157.69 127.73 157.69 129.67 138.55 128.69 138.55 126.76 157.69" style="fill:#fff"></polygon><polygon points="124.59 159.97 125.56 159.97 127.95 136.27 126.98 136.27 124.59 159.97" style="fill:#fff"></polygon><polygon points="123.03 156.1 124 156.1 125.62 140.14 124.64 140.14 123.03 156.1" style="fill:#fff"></polygon><polygon points="123.91 157.03 124.88 157.03 126.68 139.21 125.71 139.21 123.91 157.03" style="fill:#fff"></polygon><polygon points="122.24 154.29 123.22 154.29 124.46 141.95 123.49 141.95 122.24 154.29" style="fill:#fff"></polygon><polygon points="131.45 140.14 130.48 140.14 128.87 156.1 129.84 156.1 131.45 140.14" style="fill:#fff"></polygon><polygon points="130.37 141.23 129.4 141.23 128 155.01 128.98 155.01 130.37 141.23" style="fill:#fff"></polygon><polygon points="132.24 141.95 131.27 141.95 130.02 154.29 130.99 154.29 132.24 141.95" style="fill:#fff"></polygon><polygon points="134.14 142.37 133.17 142.37 132.01 153.86 132.98 153.86 134.14 142.37" style="fill:#fff"></polygon><polygon points="133.09 143.16 132.12 143.16 131.12 153.08 132.09 153.08 133.09 143.16" style="fill:#fff"></polygon><polygon points="116.92 139.58 117.9 139.58 116.17 156.66 115.2 156.66 116.92 139.58" style="fill:#fff"></polygon><polygon points="111.43 155.49 110.45 155.49 111.94 140.75 112.92 140.75 111.43 155.49" style="fill:#fff"></polygon><polygon points="110.17 158.36 109.19 158.36 111.26 137.88 112.23 137.88 110.17 158.36" style="fill:#fff"></polygon><polygon points="111.86 160.79 110.89 160.79 113.45 135.44 114.43 135.44 111.86 160.79" style="fill:#fff"></polygon><polygon points="114.23 156.66 113.25 156.66 114.98 139.58 115.95 139.58 114.23 156.66" style="fill:#fff"></polygon><polygon points="113.15 157.65 112.18 157.65 114.11 138.59 115.08 138.59 113.15 157.65" style="fill:#fff"></polygon><polygon points="115.39 154.72 114.42 154.72 115.76 141.52 116.73 141.52 115.39 154.72" style="fill:#fff"></polygon><polygon points="109.15 139.58 110.12 139.58 108.39 156.66 107.42 156.66 109.15 139.58" style="fill:#fff"></polygon><polygon points="110 140.75 110.97 140.75 109.48 155.49 108.51 155.49 110 140.75" style="fill:#fff"></polygon><polygon points="107.87 142.61 108.84 142.61 107.73 153.63 106.75 153.63 107.87 142.61" style="fill:#fff"></polygon><polygon points="105.89 142.99 106.86 142.99 105.82 153.25 104.85 153.25 105.89 142.99" style="fill:#fff"></polygon><polygon points="106.79 143.69 107.76 143.69 106.86 152.55 105.89 152.55 106.79 143.69" style="fill:#fff"></polygon><polygon points="134.98 143.68 134.01 143.68 133.11 152.56 134.08 152.56 134.98 143.68" style="fill:#fff"></polygon><polygon points="138.03 151.95 139.01 151.95 139.78 144.28 138.81 144.28 138.03 151.95" style="fill:#fff"></polygon><polygon points="138.86 153.45 139.83 153.45 140.91 142.79 139.93 142.79 138.86 153.45" style="fill:#fff"></polygon><polygon points="136.78 154.72 137.76 154.72 139.09 141.52 138.12 141.52 136.78 154.72" style="fill:#fff"></polygon><polygon points="135.06 152.56 136.03 152.56 136.93 143.68 135.96 143.68 135.06 152.56" style="fill:#fff"></polygon><polygon points="135.98 153.08 136.95 153.08 137.95 143.16 136.98 143.16 135.98 153.08" style="fill:#fff"></polygon><polygon points="134.19 151.56 135.16 151.56 135.85 144.68 134.88 144.68 134.19 151.56" style="fill:#fff"></polygon><polygon points="213.76 133.79 212.79 133.79 209.89 162.45 210.86 162.45 213.76 133.79" style="fill:#fff"></polygon><polygon points="212.59 135.75 211.62 135.75 209.12 160.49 210.09 160.49 212.59 135.75" style="fill:#fff"></polygon><polygon points="214.4 137.03 213.43 137.03 211.19 159.2 212.16 159.2 214.4 137.03" style="fill:#fff"></polygon><polygon points="216.27 137.8 215.3 137.8 213.21 158.44 214.19 158.44 216.27 137.8" style="fill:#fff"></polygon><polygon points="215.16 139.21 214.18 139.21 212.38 157.03 213.36 157.03 215.16 139.21" style="fill:#fff"></polygon><polygon points="217.01 140.14 216.03 140.14 214.42 156.1 215.39 156.1 217.01 140.14" style="fill:#fff"></polygon><polygon points="219.39 155.01 220.37 155.01 221.76 141.23 220.79 141.23 219.39 155.01" style="fill:#fff"></polygon><polygon points="220.09 157.69 221.07 157.69 223 138.55 222.03 138.55 220.09 157.69" style="fill:#fff"></polygon><polygon points="217.92 159.97 218.89 159.97 221.29 136.27 220.31 136.27 217.92 159.97" style="fill:#fff"></polygon><polygon points="216.37 156.1 217.34 156.1 218.95 140.14 217.98 140.14 216.37 156.1" style="fill:#fff"></polygon><polygon points="217.25 157.03 218.22 157.03 220.02 139.21 219.04 139.21 217.25 157.03" style="fill:#fff"></polygon><polygon points="215.58 154.29 216.55 154.29 217.8 141.95 216.82 141.95 215.58 154.29" style="fill:#fff"></polygon><polygon points="224.78 140.14 223.81 140.14 222.2 156.1 223.17 156.1 224.78 140.14" style="fill:#fff"></polygon><polygon points="223.7 141.23 222.73 141.23 221.34 155.01 222.31 155.01 223.7 141.23" style="fill:#fff"></polygon><polygon points="225.57 141.95 224.6 141.95 223.35 154.29 224.33 154.29 225.57 141.95" style="fill:#fff"></polygon><polygon points="227.48 142.37 226.5 142.37 225.34 153.86 226.31 153.86 227.48 142.37" style="fill:#fff"></polygon><polygon points="226.42 143.16 225.45 143.16 224.45 153.08 225.42 153.08 226.42 143.16" style="fill:#fff"></polygon><polygon points="228.32 143.68 227.34 143.68 226.45 152.56 227.42 152.56 228.32 143.68" style="fill:#fff"></polygon><polygon points="227.52 151.56 228.49 151.56 229.19 144.68 228.22 144.68 227.52 151.56" style="fill:#fff"></polygon><polygon points="160.79 157.69 161.76 157.69 163.69 138.55 162.72 138.55 160.79 157.69" style="fill:#fff"></polygon><polygon points="161.89 156.38 162.87 156.38 164.53 139.86 163.56 139.86 161.89 156.38" style="fill:#fff"></polygon><polygon points="160.04 155.52 161.01 155.52 162.5 140.72 161.53 140.72 160.04 155.52" style="fill:#fff"></polygon><polygon points="158.14 155.01 159.12 155.01 160.51 141.23 159.53 141.23 158.14 155.01" style="fill:#fff"></polygon><polygon points="159.21 154.07 160.18 154.07 161.38 142.17 160.41 142.17 159.21 154.07" style="fill:#fff"></polygon><polygon points="157.33 153.45 158.3 153.45 159.38 142.79 158.41 142.79 157.33 153.45" style="fill:#fff"></polygon><polygon points="154.44 143.52 153.47 143.52 152.54 152.72 153.51 152.72 154.44 143.52" style="fill:#fff"></polygon><polygon points="153.65 141.73 152.68 141.73 151.39 154.51 152.36 154.51 153.65 141.73" style="fill:#fff"></polygon><polygon points="155.75 140.21 154.78 140.21 153.18 156.03 154.15 156.03 155.75 140.21" style="fill:#fff"></polygon><polygon points="157.43 142.79 156.46 142.79 155.38 153.45 156.36 153.45 157.43 142.79" style="fill:#fff"></polygon><polygon points="156.52 142.17 155.55 142.17 154.35 154.07 155.32 154.07 156.52 142.17" style="fill:#fff"></polygon><polygon points="158.28 144 157.31 144 156.48 152.24 157.45 152.24 158.28 144" style="fill:#fff"></polygon><polygon points="149.55 153.45 150.52 153.45 151.6 142.79 150.63 142.79 149.55 153.45" style="fill:#fff"></polygon><polygon points="150.6 152.72 151.57 152.72 152.5 143.52 151.53 143.52 150.6 152.72" style="fill:#fff"></polygon><polygon points="148.7 152.24 149.67 152.24 150.51 144 149.53 144 148.7 152.24" style="fill:#fff"></polygon><polygon points="146.78 151.95 147.76 151.95 148.53 144.28 147.56 144.28 146.78 151.95" style="fill:#fff"></polygon><polygon points="147.81 151.43 148.78 151.43 149.45 144.81 148.48 144.81 147.81 151.43" style="fill:#fff"></polygon><polygon points="145.9 151.09 146.87 151.09 147.47 145.15 146.5 145.15 145.9 151.09" style="fill:#fff"></polygon><polygon points="142.57 145.56 141.6 145.56 141.08 150.68 142.05 150.68 142.57 145.56" style="fill:#fff"></polygon><polygon points="141.7 144.56 140.73 144.56 140.01 151.68 140.98 151.68 141.7 144.56" style="fill:#fff"></polygon><polygon points="143.73 143.71 142.76 143.71 141.87 152.52 142.84 152.52 143.73 143.71" style="fill:#fff"></polygon><polygon points="145.53 145.15 144.56 145.15 143.96 151.09 144.93 151.09 145.53 145.15" style="fill:#fff"></polygon><polygon points="144.59 144.81 143.62 144.81 142.95 151.43 143.92 151.43 144.59 144.81" style="fill:#fff"></polygon><polygon points="146.43 145.82 145.46 145.82 145 150.41 145.97 150.41 146.43 145.82" style="fill:#fff"></polygon><polygon points="166.97 135 166 135 163.35 161.24 164.32 161.24 166.97 135" style="fill:#fff"></polygon><polygon points="165.82 136.79 164.84 136.79 162.56 159.45 163.53 159.45 165.82 136.79" style="fill:#fff"></polygon><polygon points="167.64 137.97 166.67 137.97 164.62 158.27 165.59 158.27 167.64 137.97" style="fill:#fff"></polygon><polygon points="169.52 138.67 168.54 138.67 166.63 157.57 167.61 157.57 169.52 138.67" style="fill:#fff"></polygon><polygon points="168.41 139.96 167.44 139.96 165.79 156.28 166.76 156.28 168.41 139.96" style="fill:#fff"></polygon><polygon points="170.27 140.81 169.3 140.81 167.82 155.43 168.79 155.43 170.27 140.81" style="fill:#fff"></polygon><polygon points="172.78 154.43 173.76 154.43 175.03 141.81 174.06 141.81 172.78 154.43" style="fill:#fff"></polygon><polygon points="173.51 156.88 174.48 156.88 176.25 139.36 175.28 139.36 173.51 156.88" style="fill:#fff"></polygon><polygon points="171.35 158.97 172.33 158.97 174.52 137.27 173.55 137.27 171.35 158.97" style="fill:#fff"></polygon><polygon points="169.77 155.43 170.74 155.43 172.22 140.81 171.24 140.81 169.77 155.43" style="fill:#fff"></polygon><polygon points="170.65 156.28 171.63 156.28 173.28 139.96 172.3 139.96 170.65 156.28" style="fill:#fff"></polygon><polygon points="168.96 153.77 169.94 153.77 171.08 142.47 170.1 142.47 168.96 153.77" style="fill:#fff"></polygon><polygon points="178.05 140.81 177.08 140.81 175.6 155.43 176.57 155.43 178.05 140.81" style="fill:#fff"></polygon><polygon points="176.98 141.81 176 141.81 174.73 154.43 175.7 154.43 176.98 141.81" style="fill:#fff"></polygon><polygon points="178.85 142.47 177.88 142.47 176.74 153.77 177.71 153.77 178.85 142.47" style="fill:#fff"></polygon><polygon points="180.76 142.86 179.79 142.86 178.72 153.38 179.7 153.38 180.76 142.86" style="fill:#fff"></polygon><polygon points="179.72 143.58 178.74 143.58 177.82 152.66 178.8 152.66 179.72 143.58" style="fill:#fff"></polygon><polygon points="181.61 144.05 180.64 144.05 179.82 152.19 180.79 152.19 181.61 144.05" style="fill:#fff"></polygon><polygon points="184.73 151.63 185.71 151.63 186.42 144.61 185.44 144.61 184.73 151.63" style="fill:#fff"></polygon><polygon points="185.57 153 186.54 153 187.53 143.24 186.56 143.24 185.57 153" style="fill:#fff"></polygon><polygon points="183.51 154.16 184.48 154.16 185.7 142.08 184.73 142.08 183.51 154.16" style="fill:#fff"></polygon><polygon points="181.76 152.19 182.73 152.19 183.56 144.05 182.58 144.05 181.76 152.19" style="fill:#fff"></polygon><polygon points="182.69 152.66 183.66 152.66 184.58 143.58 183.6 143.58 182.69 152.66" style="fill:#fff"></polygon><polygon points="180.88 151.26 181.85 151.26 182.49 144.97 181.52 144.97 180.88 151.26" style="fill:#fff"></polygon><polygon points="207.54 156.88 208.51 156.88 210.28 139.36 209.31 139.36 207.54 156.88" style="fill:#fff"></polygon><polygon points="208.63 155.68 209.6 155.68 211.13 140.56 210.16 140.56 208.63 155.68" style="fill:#fff"></polygon><polygon points="206.77 154.89 207.74 154.89 209.11 141.34 208.13 141.34 206.77 154.89" style="fill:#fff"></polygon><polygon points="204.87 154.43 205.84 154.43 207.12 141.81 206.14 141.81 204.87 154.43" style="fill:#fff"></polygon><polygon points="205.93 153.56 206.9 153.56 208 142.67 207.03 142.67 205.93 153.56" style="fill:#fff"></polygon><polygon points="235.37 141.23 234.4 141.23 233 155.01 233.98 155.01 235.37 141.23" style="fill:#fff"></polygon><polygon points="234.3 142.17 233.33 142.17 232.13 154.07 233.1 154.07 234.3 142.17" style="fill:#fff"></polygon><polygon points="236.18 142.79 235.21 142.79 234.13 153.45 235.11 153.45 236.18 142.79" style="fill:#fff"></polygon><polygon points="238.09 143.16 237.12 143.16 236.12 153.08 237.09 153.08 238.09 143.16" style="fill:#fff"></polygon><polygon points="237.05 143.84 236.08 143.84 235.21 152.4 236.19 152.4 237.05 143.84" style="fill:#fff"></polygon><polygon points="230.36 152.33 231.33 152.33 232.18 143.91 231.21 143.91 230.36 152.33" style="fill:#fff"></polygon><polygon points="231.39 151.75 232.36 151.75 233.1 144.48 232.12 144.48 231.39 151.75" style="fill:#fff"></polygon><polygon points="229.48 151.38 230.46 151.38 231.11 144.86 230.14 144.86 229.48 151.38" style="fill:#fff"></polygon><polygon points="228.57 150.74 229.55 150.74 230.08 145.5 229.1 145.5 228.57 150.74" style="fill:#fff"></polygon><polygon points="204.04 153 205.01 153 206 143.24 205.03 143.24 204.04 153" style="fill:#fff"></polygon><polygon points="201.07 143.91 200.1 143.91 199.25 152.33 200.22 152.33 201.07 143.91" style="fill:#fff"></polygon><polygon points="200.26 142.27 199.29 142.27 198.11 153.97 199.08 153.97 200.26 142.27" style="fill:#fff"></polygon><polygon points="202.35 140.88 201.38 140.88 199.91 155.36 200.88 155.36 202.35 140.88" style="fill:#fff"></polygon><polygon points="204.06 143.24 203.08 143.24 202.1 153 203.07 153 204.06 143.24" style="fill:#fff"></polygon><polygon points="203.14 142.67 202.17 142.67 201.07 153.56 202.04 153.56 203.14 142.67" style="fill:#fff"></polygon><polygon points="204.91 144.35 203.94 144.35 203.18 151.89 204.15 151.89 204.91 144.35" style="fill:#fff"></polygon><polygon points="196.26 153 197.24 153 198.22 143.24 197.25 143.24 196.26 153" style="fill:#fff"></polygon><polygon points="197.3 152.33 198.28 152.33 199.13 143.91 198.15 143.91 197.3 152.33" style="fill:#fff"></polygon><polygon points="195.4 151.89 196.38 151.89 197.14 144.35 196.16 144.35 195.4 151.89" style="fill:#fff"></polygon><polygon points="193.48 151.63 194.46 151.63 195.17 144.61 194.19 144.61 193.48 151.63" style="fill:#fff"></polygon><polygon points="194.5 151.15 195.48 151.15 196.09 145.09 195.12 145.09 194.5 151.15" style="fill:#fff"></polygon><polygon points="192.59 150.83 193.56 150.83 194.11 145.4 193.14 145.4 192.59 150.83" style="fill:#fff"></polygon><polygon points="189.22 145.77 188.24 145.77 187.77 150.46 188.74 150.46 189.22 145.77" style="fill:#fff"></polygon><polygon points="188.34 144.86 187.36 144.86 186.71 151.38 187.68 151.38 188.34 144.86" style="fill:#fff"></polygon><polygon points="190.36 144.09 189.39 144.09 188.57 152.15 189.54 152.15 190.36 144.09" style="fill:#fff"></polygon><polygon points="192.17 145.4 191.2 145.4 190.65 150.83 191.62 150.83 192.17 145.4" style="fill:#fff"></polygon><polygon points="191.23 145.09 190.26 145.09 189.64 151.15 190.62 151.15 191.23 145.09" style="fill:#fff"></polygon><polygon points="193.08 146.02 192.11 146.02 191.68 150.22 192.66 150.22 193.08 146.02" style="fill:#fff"></polygon><path d="M232.87,199.84H99.64L107,127.48H240.18Zm-132.13-1H232l7.11-70.36H107.85Z" style="fill:#fff"></path><polygon points="239.25 262.75 94.76 262.75 94.12 215.42 225.76 215.42 239.25 262.75" style="fill:#006FFF"></polygon><polygon points="239.25 262.75 94.76 262.75 94.12 215.42 225.76 215.42 239.25 262.75" style="fill:#fff;opacity:0.5"></polygon><polygon points="248.03 262.75 116.39 262.75 102.9 215.42 234.54 215.42 248.03 262.75" style="fill:#006FFF"></polygon><polygon points="248.03 262.75 116.39 262.75 102.9 215.42 234.54 215.42 248.03 262.75" style="fill:#fff;opacity:0.7000000000000001"></polygon><polygon points="126.69 258.42 125.26 258.42 114.24 219.75 115.67 219.75 126.69 258.42" style="fill:#263238"></polygon><polygon points="121.45 232.92 115.97 232.92 115.11 229.92 120.59 229.92 121.45 232.92" style="fill:#fff"></polygon><polygon points="136.69 258.42 135.26 258.42 124.24 219.75 125.67 219.75 136.69 258.42" style="fill:#263238"></polygon><polygon points="133.21 239.09 127.72 239.09 126.87 236.09 132.35 236.09 133.21 239.09" style="fill:#fff"></polygon><polygon points="146.69 258.42 145.26 258.42 134.24 219.75 135.67 219.75 146.69 258.42" style="fill:#263238"></polygon><polygon points="144.89 245 139.41 245 138.56 242 144.04 242 144.89 245" style="fill:#fff"></polygon><polygon points="156.69 258.42 155.26 258.42 144.24 219.75 145.67 219.75 156.69 258.42" style="fill:#263238"></polygon><polygon points="154.06 242.09 148.58 242.09 147.72 239.09 153.21 239.09 154.06 242.09" style="fill:#fff"></polygon><polygon points="166.69 258.42 165.26 258.42 154.24 219.75 155.67 219.75 166.69 258.42" style="fill:#263238"></polygon><polygon points="162.68 237.25 157.2 237.25 156.35 234.25 161.83 234.25 162.68 237.25" style="fill:#fff"></polygon><polygon points="176.69 258.42 175.26 258.42 164.24 219.75 165.67 219.75 176.69 258.42" style="fill:#263238"></polygon><polygon points="176.25 249.75 170.76 249.75 169.91 246.75 175.39 246.75 176.25 249.75" style="fill:#fff"></polygon><polygon points="186.69 258.42 185.26 258.42 174.24 219.75 175.67 219.75 186.69 258.42" style="fill:#263238"></polygon><polygon points="185.11 245.75 179.62 245.75 178.77 242.75 184.25 242.75 185.11 245.75" style="fill:#fff"></polygon><polygon points="196.69 258.42 195.26 258.42 184.24 219.75 185.67 219.75 196.69 258.42" style="fill:#263238"></polygon><polygon points="193.63 240.59 188.15 240.59 187.3 237.59 192.78 237.59 193.63 240.59" style="fill:#fff"></polygon><polygon points="206.69 258.42 205.26 258.42 194.24 219.75 195.67 219.75 206.69 258.42" style="fill:#263238"></polygon><polygon points="202.3 235.92 196.82 235.92 195.97 232.92 201.45 232.92 202.3 235.92" style="fill:#fff"></polygon><polygon points="216.69 258.42 215.26 258.42 204.24 219.75 205.67 219.75 216.69 258.42" style="fill:#263238"></polygon><polygon points="214.47 243.5 208.98 243.5 208.13 240.5 213.61 240.5 214.47 243.5" style="fill:#fff"></polygon><polygon points="226.69 258.42 225.26 258.42 214.24 219.75 215.67 219.75 226.69 258.42" style="fill:#263238"></polygon><polygon points="226.44 250.42 220.95 250.42 220.1 247.42 225.58 247.42 226.44 250.42" style="fill:#fff"></polygon><polygon points="236.69 258.42 235.26 258.42 224.24 219.75 225.67 219.75 236.69 258.42" style="fill:#263238"></polygon><polygon points="230.12 228.25 224.64 228.25 223.78 225.25 229.26 225.25 230.12 228.25" style="fill:#fff"></polygon><rect x="73.33" y="262.75" width="353.33" height="5.11" rx="2.56" style="fill:#263238"></rect><rect x="73.33" y="262.75" width="52.18" height="5.11" rx="2.56"></rect><path d="M88.18,269.87h26.48a.27.27,0,0,1,.27.17.26.26,0,0,1-.07.31L88.38,296.85a.25.25,0,0,1-.19.09.29.29,0,0,1-.3-.29v-26.5a.29.29,0,0,1,.29-.28m0-2a2.28,2.28,0,0,0-2.28,2.28v26.5a2.28,2.28,0,0,0,3.9,1.62l26.49-26.49a2.28,2.28,0,0,0-1.62-3.9H88.17Z" style="fill:#263238"></path><path d="M382.11,269.87H408.6a.28.28,0,0,1,.2.48l-26.49,26.49a.25.25,0,0,1-.19.09.29.29,0,0,1-.3-.29v-26.5a.29.29,0,0,1,.29-.28m0-2a2.29,2.29,0,0,0-2.29,2.28v26.5a2.28,2.28,0,0,0,2.3,2.29,2.23,2.23,0,0,0,1.6-.67l26.49-26.49a2.28,2.28,0,0,0-1.61-3.9Z" style="fill:#263238"></path><path d="M308.83,162.59c-.05.83-1.23,1.76-2.62,2.08s-2.49-.1-2.44-.93,1.22-1.76,2.62-2.08S308.88,161.76,308.83,162.59Z" style="fill:#263238"></path><path d="M305.31,165.32a2.46,2.46,0,0,1-1.6-.49,1.36,1.36,0,0,1-.49-1.12c.07-1.09,1.38-2.2,3-2.58a3.08,3.08,0,0,1,2.62.37,1.33,1.33,0,0,1,.48,1.12c-.06,1.09-1.37,2.2-3,2.58A4.71,4.71,0,0,1,305.31,165.32Zm2-3.22a3.89,3.89,0,0,0-.78.09c-1.32.3-2.17,1.13-2.2,1.58a.26.26,0,0,0,.1.23,2.17,2.17,0,0,0,1.68.14c1.32-.3,2.17-1.13,2.2-1.58h0a.27.27,0,0,0-.11-.23A1.42,1.42,0,0,0,307.29,162.1Z" style="fill:#263238"></path><polyline points="310.28 156 314.55 157.39 315.25 154.22 310.98 152.84 308.83 162.59" style="fill:#263238"></polyline><path d="M308.83,163.13h-.12a.54.54,0,0,1-.41-.65l1.44-6.56a.43.43,0,0,0,0,0l.7-3.14a.53.53,0,0,1,.26-.36.54.54,0,0,1,.43,0l4.27,1.38a.55.55,0,0,1,.37.64l-.7,3.16a.55.55,0,0,1-.7.41l-3.7-1.2-1.32,6A.54.54,0,0,1,308.83,163.13Zm2.09-7.49,3.23,1,.46-2.09-3.23-1.05Z" style="fill:#263238"></path><path d="M329.57,126a2.78,2.78,0,0,1-2.95,1.17c-1.27-.2-2-1-1.65-1.89a2.78,2.78,0,0,1,2.95-1.16C329.19,124.34,329.93,125.18,329.57,126Z" style="fill:#263238"></path><path d="M327.17,127.78a4.72,4.72,0,0,1-.64,0,2.71,2.71,0,0,1-2-1.21,1.6,1.6,0,0,1-.08-1.43A3.31,3.31,0,0,1,328,123.6a2.67,2.67,0,0,1,2,1.21,1.63,1.63,0,0,1,.07,1.43A3.11,3.11,0,0,1,327.17,127.78Zm.19-3.14a2.08,2.08,0,0,0-1.89.87.54.54,0,0,0,0,.48,1.68,1.68,0,0,0,1.21.66,2.32,2.32,0,0,0,2.37-.84.49.49,0,0,0,0-.47,1.66,1.66,0,0,0-1.21-.67A3.71,3.71,0,0,0,327.36,124.64Z" style="fill:#263238"></path><polyline points="333.27 119.73 336.26 122.79 338.04 119.76 335.05 116.7 329.57 126.03" style="fill:#263238"></polyline><path d="M329.57,126.57a.57.57,0,0,1-.28-.08.54.54,0,0,1-.19-.74l5.49-9.33a.54.54,0,0,1,.85-.1l3,3.06a.56.56,0,0,1,.08.66l-1.78,3a.57.57,0,0,1-.41.26.54.54,0,0,1-.45-.16l-2.49-2.55L330,126.3A.56.56,0,0,1,329.57,126.57Zm4.38-6.92,2.2,2.25,1.21-2.06-2.2-2.25Z" style="fill:#263238"></path><path d="M308.14,104.78c0,.54-.8,1.14-1.71,1.35s-1.61-.06-1.58-.6.8-1.14,1.7-1.35S308.17,104.24,308.14,104.78Z" style="fill:#263238"></path><path d="M305.85,106.55a1.59,1.59,0,0,1-1-.31.87.87,0,0,1-.31-.73c0-.71.89-1.43,2-1.67a2,2,0,0,1,1.69.23.85.85,0,0,1,.32.73h0c0,.71-.89,1.43-2,1.68A3.09,3.09,0,0,1,305.85,106.55Zm1.29-2.09a2.5,2.5,0,0,0-.51.06c-.86.2-1.41.73-1.43,1a.18.18,0,0,0,.07.15,1.4,1.4,0,0,0,1.09.09c.85-.2,1.41-.73,1.43-1a.19.19,0,0,0-.07-.15A1,1,0,0,0,307.14,104.46Zm1,.32h0Z" style="fill:#263238"></path><polyline points="309.08 100.5 313.41 101.8 313.86 99.74 309.53 98.45 308.14 104.78" style="fill:#263238"></polyline><path d="M308.14,105.14h-.08a.35.35,0,0,1-.27-.42l.94-4.27v0l.45-2a.38.38,0,0,1,.16-.23.35.35,0,0,1,.28,0L314,99.4a.37.37,0,0,1,.25.42l-.46,2.05a.35.35,0,0,1-.16.23.42.42,0,0,1-.29,0l-4-1.19-.86,3.91A.35.35,0,0,1,308.14,105.14Zm1.36-4.88,3.64,1.09.3-1.37-3.64-1.09Z" style="fill:#263238"></path><path d="M312.46,106.07c0,.54-.79,1.15-1.7,1.35s-1.62-.06-1.58-.6.79-1.14,1.7-1.35S312.5,105.54,312.46,106.07Z" style="fill:#263238"></path><path d="M310.18,107.85a1.58,1.58,0,0,1-1-.32.89.89,0,0,1-.32-.73c.05-.71.9-1.42,2-1.67a2,2,0,0,1,1.7.24.88.88,0,0,1,.32.73h0c-.05.7-.9,1.42-2,1.67A3.13,3.13,0,0,1,310.18,107.85Zm1.28-2.09a1.93,1.93,0,0,0-.5.06c-.86.19-1.41.73-1.43,1a.15.15,0,0,0,.07.15,1.37,1.37,0,0,0,1.08.09c.86-.2,1.41-.73,1.43-1h0a.15.15,0,0,0-.07-.15A1,1,0,0,0,311.46,105.76Z" style="fill:#263238"></path><path d="M312.46,106.43h-.07a.35.35,0,0,1-.27-.42l.94-4.28a.35.35,0,0,1,.42-.27.35.35,0,0,1,.27.42l-.94,4.28A.35.35,0,0,1,312.46,106.43Z" style="fill:#263238"></path><path d="M300.76,135.88c.16.64-.67,1.65-1.85,2.24s-2.28.56-2.44-.08.66-1.65,1.84-2.25S300.59,135.24,300.76,135.88Z" style="fill:#263238"></path><path d="M297.38,139a1.79,1.79,0,0,1-.75-.15,1.09,1.09,0,0,1-.62-.72c-.25-1,.89-2.17,2.09-2.78a3.1,3.1,0,0,1,2.49-.33,1.08,1.08,0,0,1,.62.72h0c.26,1-.88,2.18-2.09,2.79A4,4,0,0,1,297.38,139Zm2.47-3.18a3.06,3.06,0,0,0-1.32.38c-1.09.54-1.68,1.38-1.6,1.7,0,0,0,.06.1.09a2.23,2.23,0,0,0,1.67-.31c1.08-.54,1.68-1.38,1.6-1.7h0a.18.18,0,0,0-.1-.1A1,1,0,0,0,299.85,135.84Z" style="fill:#263238"></path><polyline points="300.39 130.51 306.93 130.34 306.75 127.75 300.22 127.93 300.76 135.88" style="fill:#263238"></polyline><path d="M300.76,136.35a.46.46,0,0,1-.47-.44l-.54-8a.48.48,0,0,1,.12-.35.5.5,0,0,1,.34-.16l6.53-.17a.44.44,0,0,1,.48.44l.18,2.59a.52.52,0,0,1-.12.35.49.49,0,0,1-.34.15l-6,.16.33,4.88a.48.48,0,0,1-.44.5Zm0-8,.11,1.65,5.58-.15-.11-1.64Z" style="fill:#263238"></path><path d="M307.29,135.71c.16.64-.66,1.65-1.85,2.24s-2.27.56-2.44-.09.66-1.64,1.85-2.24S307.12,135.07,307.29,135.71Z" style="fill:#263238"></path><path d="M303.91,138.85a1.79,1.79,0,0,1-.75-.15,1.11,1.11,0,0,1-.62-.72c-.25-1,.89-2.17,2.09-2.78a3.1,3.1,0,0,1,2.49-.33,1.08,1.08,0,0,1,.62.72h0c.26,1-.88,2.18-2.09,2.78A4,4,0,0,1,303.91,138.85Zm2.47-3.18a3.2,3.2,0,0,0-1.32.37c-1.09.55-1.68,1.39-1.6,1.71,0,0,0,.05.1.09a2.28,2.28,0,0,0,1.67-.31c1.08-.54,1.68-1.39,1.6-1.7h0s0-.06-.1-.1A.82.82,0,0,0,306.38,135.67Z" style="fill:#263238"></path><path d="M307.29,136.18a.46.46,0,0,1-.47-.44l-.36-5.37a.47.47,0,0,1,.94-.06l.36,5.37a.47.47,0,0,1-.44.5Z" style="fill:#263238"></path></g><g id="freepik--Character--inject-33"><path d="M293,233.87c.71,5,1.53,10.1,2.45,15.09s1.95,10,3.31,14.69c.32,1.2.71,2.31,1.07,3.45l.62,1.61.15.4.08.2c0,.08,0-.06-.05-.1s-.07-.12-.11-.17a3.21,3.21,0,0,0-.36-.45,3.29,3.29,0,0,0-.61-.55,3.87,3.87,0,0,0-1.76-.7,3.3,3.3,0,0,0-.75,0,2.45,2.45,0,0,0-.51.09l-.3.09-.17.08c-.14.08-.06.08,0,0a5.33,5.33,0,0,0,1-.69,33.21,33.21,0,0,0,2.44-2.37c3.32-3.56,6.61-7.66,9.9-11.61l4.69,2.78a83.28,83.28,0,0,1-7.71,14.34,33.11,33.11,0,0,1-2.75,3.51,15.47,15.47,0,0,1-2,1.87,8.82,8.82,0,0,1-1.65,1l-.63.25c-.23.08-.51.16-.77.23a7.34,7.34,0,0,1-1,.15,5.87,5.87,0,0,1-1.24,0,5.74,5.74,0,0,1-2.66-1.07,6.36,6.36,0,0,1-1-.87,8.78,8.78,0,0,1-.65-.85l-.22-.39-.17-.32-.11-.25-.24-.5c-.31-.66-.63-1.33-.92-2-.52-1.32-1.09-2.65-1.52-4-.94-2.64-1.67-5.25-2.4-7.88s-1.3-5.24-1.84-7.87-1-5.26-1.46-7.89-.82-5.25-1.12-8Z" style="fill:#7f3e3b"></path><path d="M322.43,246.62l0,5.3a3,3,0,0,1-1.88,2.83l-4.44,1.81s-4.5,4.59-8,2.65L307,255.93l5.83-8.12a4.63,4.63,0,0,1,2.45-1.73l4.6-1.37A2,2,0,0,1,322.43,246.62Z" style="fill:#7f3e3b"></path><path d="M272.27,198.06c-1.23,6.1-2.5,17.28,1.74,21.38,0,0-10.92,5.22-18.3,14.75-7.29-6.23-2.48-13.92-2.48-13.92,6.82-1.58,6.34-8.18,5.49-13Z" style="fill:#7f3e3b"></path><path d="M277.44,221.81c-5.7,5.8-1.43,21.55,2.91,28.39l15.74-6s-.51-10.67-3.44-16.23C289.53,222,281.31,217.88,277.44,221.81Z" style="fill:#006FFF"></path><path d="M236.42,234.74c.32,8.89-.88,24.8,4,50l41.78-1.25c-1.1-15.42,3.27-26.08,8-52.92a8.77,8.77,0,0,0-7.43-10.22c-2.67-.37-5.71-.71-8.77-.88a132.83,132.83,0,0,0-19-.13c-2,.18-4.15.42-6.17.69A14.32,14.32,0,0,0,236.42,234.74Z" style="fill:#006FFF"></path><path d="M253.43,185c-.28.78-.92,1.26-1.43,1.08s-.7-1-.41-1.75.92-1.26,1.43-1.08S253.72,184.18,253.43,185Z" style="fill:#263238"></path><path d="M253.23,183.34l-1.68-1.22S252,183.93,253.23,183.34Z" style="fill:#263238"></path><path d="M252.87,186.14a22.31,22.31,0,0,1-4.59,4,3.54,3.54,0,0,0,2.59,1.53Z" style="fill:#630f0f"></path><path d="M255,177.9a.48.48,0,0,1,.76-.55,4.84,4.84,0,0,1,1.91,4,.48.48,0,0,1-.53.44.48.48,0,0,1-.44-.53h0a3.86,3.86,0,0,0-1.55-3.16A.51.51,0,0,1,255,177.9Z" style="fill:#263238"></path><path d="M281.16,191.24c-4.07,9.36-5.59,13.42-12.21,16.58-10,4.75-20.59-2.3-19.4-12.69,1.07-9.36,7.54-23.11,18.31-23.51A13.93,13.93,0,0,1,281.16,191.24Z" style="fill:#7f3e3b"></path><path d="M280.17,197.11c1.27,3.89,4.27,15-12.67,14.11-17.54-.91-10.06-22.65-10.06-22.65-3.83-1.82-.44-5.78-.44-5.78a7.83,7.83,0,0,1,.44-7.76c-1.5-3.59-1.05-9.25,10.7-9.25s18.64,9.46,17.92,17.68S284.11,196.5,280.17,197.11Z" style="fill:#263238"></path><path d="M283.09,214.65h0a3.78,3.78,0,0,1-2.91-1.53,4.42,4.42,0,0,1-.47-4c.12-.38.27-.75.42-1.12a4.67,4.67,0,0,0,.08-4.18,8.66,8.66,0,0,1-.27-4.77,4.7,4.7,0,0,0-.1-2.83,1,1,0,0,1,.47-1.34,1,1,0,0,1,1.33.47,6.38,6.38,0,0,1,.27,4,6.67,6.67,0,0,0,.16,3.74,6.57,6.57,0,0,1-.09,5.67c-.13.31-.25.61-.35.93a2.57,2.57,0,0,0,.17,2.27,1.76,1.76,0,0,0,1.35.7,1,1,0,0,1,0,2Z" style="fill:#263238"></path><path d="M259,214.1a1.06,1.06,0,0,1-.42-.09,4.22,4.22,0,0,1-2-2.92,5.69,5.69,0,0,1,1.05-4.93,4.27,4.27,0,0,1,1.44-1.09c.65-.34,1-.53,1.05-2.17a8.58,8.58,0,0,1,1.58-4.51,4.71,4.71,0,0,0,1-2.65,1,1,0,0,1,.94-1.05,1,1,0,0,1,1,.94,6.41,6.41,0,0,1-1.29,3.8,6.67,6.67,0,0,0-1.29,3.51c-.06,2.61-1,3.31-2.12,3.9a2.52,2.52,0,0,0-.82.58,3.73,3.73,0,0,0-.65,3.22,2.42,2.42,0,0,0,.89,1.55,1,1,0,0,1,.5,1.32A1,1,0,0,1,259,214.1Z" style="fill:#263238"></path><path d="M284.86,204.61a3.47,3.47,0,0,1-1.31-.25,4.39,4.39,0,0,1-2.58-3.1,9.4,9.4,0,0,1-.26-1.17,4.72,4.72,0,0,0-2.21-3.55,8.66,8.66,0,0,1-2.84-3.85,4.65,4.65,0,0,0-1.62-2.32,1,1,0,1,1,1-1.71,6.34,6.34,0,0,1,2.4,3.21,6.69,6.69,0,0,0,2.18,3,6.62,6.62,0,0,1,3,4.81,7.45,7.45,0,0,0,.22,1,2.58,2.58,0,0,0,1.38,1.82,1.75,1.75,0,0,0,1.51-.15,1,1,0,0,1,1,1.71A3.82,3.82,0,0,1,284.86,204.61Z" style="fill:#263238"></path><path d="M253.21,200.34a3.74,3.74,0,0,1-2.51-1,1,1,0,0,1,1.34-1.49,1.77,1.77,0,0,0,1.46.43,2.56,2.56,0,0,0,1.69-1.52,9.28,9.28,0,0,0,.4-.91,6.57,6.57,0,0,1,3.86-4.15,6.82,6.82,0,0,0,2.7-2.59,6.45,6.45,0,0,1,3-2.7,1,1,0,1,1,.7,1.87,4.66,4.66,0,0,0-2,2,8.6,8.6,0,0,1-3.51,3.25,4.66,4.66,0,0,0-2.83,3.07c-.15.38-.3.75-.48,1.1a4.41,4.41,0,0,1-3.12,2.57A3.39,3.39,0,0,1,253.21,200.34Z" style="fill:#263238"></path><path d="M251.18,205.71a3.76,3.76,0,0,1-2.83-1.3,1,1,0,0,1,1.52-1.31,1.73,1.73,0,0,0,1.39.61,2.61,2.61,0,0,0,1.87-1.3,9,9,0,0,0,.5-.85,6.59,6.59,0,0,1,4.35-3.65,6.71,6.71,0,0,0,3-2.24,6.41,6.41,0,0,1,3.27-2.31,1,1,0,1,1,.47,1.95,4.65,4.65,0,0,0-2.26,1.71,8.56,8.56,0,0,1-3.88,2.79,4.68,4.68,0,0,0-3.19,2.7,9.62,9.62,0,0,1-.61,1,4.42,4.42,0,0,1-3.41,2.17Z" style="fill:#263238"></path><path d="M253.83,216.83a3.1,3.1,0,0,1-.43,0,1,1,0,1,1,.23-2,1.76,1.76,0,0,0,1.44-.5,2.61,2.61,0,0,0,.5-2.22c0-.33-.13-.64-.21-1a6.58,6.58,0,0,1,.73-5.63,6.65,6.65,0,0,0,.7-3.68,6.45,6.45,0,0,1,.85-3.92A1,1,0,0,1,259.3,199a4.69,4.69,0,0,0-.51,2.78,8.63,8.63,0,0,1-1,4.68,4.66,4.66,0,0,0-.53,4.15c.1.39.19.78.25,1.17a4.41,4.41,0,0,1-1.05,3.9A3.76,3.76,0,0,1,253.83,216.83Z" style="fill:#263238"></path><path d="M252.52,213.37a1,1,0,0,1-.67-.26,1,1,0,0,1-.07-1.41,4.67,4.67,0,0,0,.91-2.69,8.76,8.76,0,0,1,1.64-4.49,4.63,4.63,0,0,0,1.13-4c0-.4-.07-.8-.07-1.2a4.4,4.4,0,0,1,1.6-3.7,3.75,3.75,0,0,1,3.23-.62,1,1,0,1,1-.52,1.93,1.76,1.76,0,0,0-1.49.28,2.59,2.59,0,0,0-.82,2.13c0,.33,0,.65.06,1a6.58,6.58,0,0,1-1.55,5.46,6.75,6.75,0,0,0-1.23,3.53,6.42,6.42,0,0,1-1.41,3.76A1,1,0,0,1,252.52,213.37Z" style="fill:#263238"></path><path d="M279.76,218a1,1,0,0,1-.87-.49,6.43,6.43,0,0,1-.57-4,6.73,6.73,0,0,0-.45-3.72,6.6,6.6,0,0,1-.34-5.66c.1-.32.21-.63.28-.95a2.59,2.59,0,0,0-.35-2.25,1.75,1.75,0,0,0-1.4-.6,1,1,0,0,1-1-1,1,1,0,0,1,1-1,3.81,3.81,0,0,1,3,1.3,4.41,4.41,0,0,1,.77,4,11.53,11.53,0,0,1-.32,1.15,4.66,4.66,0,0,0,.23,4.18,8.58,8.58,0,0,1,.64,4.74,4.75,4.75,0,0,0,.31,2.81,1,1,0,0,1-.36,1.37A1,1,0,0,1,279.76,218Z" style="fill:#263238"></path><path d="M285.39,210.29a1,1,0,0,1-.52-.15,6.43,6.43,0,0,1-2.37-3.24,6.73,6.73,0,0,0-2.14-3.07,6.63,6.63,0,0,1-3-4.84,7.94,7.94,0,0,0-.2-1,2.56,2.56,0,0,0-1.36-1.83,1.75,1.75,0,0,0-1.51.13A1,1,0,0,1,273,196a1,1,0,0,1,.35-1.37,3.73,3.73,0,0,1,3.27-.27,4.4,4.4,0,0,1,2.54,3.14,11,11,0,0,1,.25,1.17,4.67,4.67,0,0,0,2.17,3.57,8.65,8.65,0,0,1,2.79,3.89,4.72,4.72,0,0,0,1.59,2.34,1,1,0,0,1-.53,1.85Z" style="fill:#263238"></path><path d="M277.89,216.35h-.14a3.73,3.73,0,0,1-2.73-1.82,4.43,4.43,0,0,1,0-4,12,12,0,0,1,.53-1.08,4.68,4.68,0,0,0,.52-4.15,8.47,8.47,0,0,1,.22-4.77,4.77,4.77,0,0,0,.2-2.83,1,1,0,0,1,.6-1.28,1,1,0,0,1,1.28.61,6.39,6.39,0,0,1-.15,4,6.72,6.72,0,0,0-.23,3.74,6.6,6.6,0,0,1-.68,5.63c-.16.29-.31.58-.44.88a2.61,2.61,0,0,0-.07,2.28,1.8,1.8,0,0,0,1.27.84,1,1,0,0,1-.13,2Z" style="fill:#263238"></path><path d="M271,216.9a1,1,0,0,1-.4-1.92,1.75,1.75,0,0,0,1-1.15,2.6,2.6,0,0,0-.69-2.17,7.63,7.63,0,0,0-.66-.73,6.61,6.61,0,0,1-2.18-5.24,6.69,6.69,0,0,0-1.23-3.54,6.36,6.36,0,0,1-1.23-3.81,1,1,0,0,1,2,.14,4.57,4.57,0,0,0,1,2.66,8.66,8.66,0,0,1,1.5,4.54,4.7,4.7,0,0,0,1.62,3.86,11.28,11.28,0,0,1,.8.89,4.43,4.43,0,0,1,1.05,3.9,3.78,3.78,0,0,1-2.14,2.49A1.14,1.14,0,0,1,271,216.9Z" style="fill:#263238"></path><path d="M274.69,218.55a1,1,0,0,1-.87-.51,6.4,6.4,0,0,1-.54-4,6.71,6.71,0,0,0-.4-3.72,6.59,6.59,0,0,1-.29-5.66,8.53,8.53,0,0,0,.28-.95,2.59,2.59,0,0,0-.31-2.26,1.82,1.82,0,0,0-1.4-.61,1,1,0,0,1-.07-2,3.74,3.74,0,0,1,3,1.33,4.41,4.41,0,0,1,.74,4,11.64,11.64,0,0,1-.34,1.15,4.66,4.66,0,0,0,.19,4.18,8.62,8.62,0,0,1,.6,4.74,4.63,4.63,0,0,0,.28,2.82,1,1,0,0,1-.87,1.49Z" style="fill:#263238"></path><path d="M271.11,217.85H271a3.39,3.39,0,0,1-2.41-1.78,5.12,5.12,0,0,1,0-4.55,12,12,0,0,1,.56-1.06,4.66,4.66,0,0,0,.6-4.13,8.77,8.77,0,0,1,.33-4.78,4.69,4.69,0,0,0,.27-2.81,1,1,0,1,1,1.89-.64,6.44,6.44,0,0,1-.23,4,6.68,6.68,0,0,0-.32,3.73,6.62,6.62,0,0,1-.8,5.62,8.07,8.07,0,0,0-.46.87,3.05,3.05,0,0,0-.1,2.79,1.43,1.43,0,0,0,1,.77,1,1,0,0,1-.15,2Z" style="fill:#263238"></path><path d="M266.53,217.85a1,1,0,0,1-1-.82,6.47,6.47,0,0,1,.82-3.93,6.59,6.59,0,0,0,.85-3.64,6.61,6.61,0,0,1,1.62-5.44,9,9,0,0,0,.58-.8,2.56,2.56,0,0,0,.45-2.23,1.73,1.73,0,0,0-1.11-1,1,1,0,1,1,.6-1.91,3.79,3.79,0,0,1,2.39,2.25,4.44,4.44,0,0,1-.63,4c-.21.34-.46.65-.7,1a4.68,4.68,0,0,0-1.21,4,8.54,8.54,0,0,1-1,4.67,4.74,4.74,0,0,0-.67,2.75,1,1,0,0,1-.81,1.16Z" style="fill:#263238"></path><path d="M262.87,218.56a1,1,0,0,1-1-.88,6.41,6.41,0,0,1,1-3.88,6.7,6.7,0,0,0,1-3.59,6.63,6.63,0,0,1,1.91-5.34,9.06,9.06,0,0,0,.63-.76,2.61,2.61,0,0,0,.57-2.21,1.77,1.77,0,0,0-1.05-1.1,1,1,0,0,1-.59-1.28,1,1,0,0,1,1.29-.59,3.74,3.74,0,0,1,2.26,2.38,4.41,4.41,0,0,1-.85,3.95c-.23.33-.49.62-.75.93a4.64,4.64,0,0,0-1.42,3.93,8.69,8.69,0,0,1-1.28,4.61,4.7,4.7,0,0,0-.82,2.71,1,1,0,0,1-.87,1.11Z" style="fill:#263238"></path><path d="M262.14,215.78a1,1,0,0,1-.9-.56,5.74,5.74,0,0,1-.18-5.46,4,4,0,0,0,.4-2.61,6.62,6.62,0,0,1,1.11-5.57c.18-.28.36-.55.51-.84a2.63,2.63,0,0,0,.24-2.27,1.77,1.77,0,0,0-1.2-.93,1,1,0,1,1,.42-2,3.74,3.74,0,0,1,2.58,2,4.36,4.36,0,0,1-.26,4,10.72,10.72,0,0,1-.61,1,4.69,4.69,0,0,0-.83,4.1,6,6,0,0,1-.51,3.75,3.8,3.8,0,0,0,.13,3.83,1,1,0,0,1-.9,1.44Z" style="fill:#263238"></path><path d="M259.57,211.43a1,1,0,0,1-.33-.06,1,1,0,0,1-.62-1.27,3.76,3.76,0,0,0-.36-3.8,6.08,6.08,0,0,1-1-3.66,4.63,4.63,0,0,0-1.35-4,11.22,11.22,0,0,1-.73-.94,4.41,4.41,0,0,1-.77-4,3.75,3.75,0,0,1,2.31-2.34,1,1,0,0,1,.66,1.89,1.74,1.74,0,0,0-1.07,1.07,2.56,2.56,0,0,0,.53,2.22,8.68,8.68,0,0,0,.61.78,6.61,6.61,0,0,1,1.81,5.38,4,4,0,0,0,.73,2.53,5.73,5.73,0,0,1,.51,5.44A1,1,0,0,1,259.57,211.43Z" style="fill:#263238"></path><path d="M262.87,190.13a9.11,9.11,0,0,1-5.13,4.7c-3,1.07-4.74-1.57-4.09-4.53.59-2.66,2.87-6.42,6-6.21S264.1,187.44,262.87,190.13Z" style="fill:#7f3e3b"></path><polygon points="189.69 399.68 179.83 398.74 186.47 374.45 196.34 375.38 189.69 399.68" style="fill:#7f3e3b"></polygon><path d="M162.05,401.64c6.22-1,9.56-1.23,16.16-5.3a3.89,3.89,0,0,1,2.27-.7l10.37,1.43a.78.78,0,0,1,.68.78l.49,6.92c.17,2.39-1.56,4.45-3.59,4.27-3.26-.3-6.84-1.42-10.42-1.64-5.21-.31-9.76-.23-15.79-1.32C158.58,405.43,159.94,402,162.05,401.64Z" style="fill:#263238"></path><polygon points="155.53 369.7 147.65 365.67 157.99 345.67 166.01 353.94 155.53 369.7" style="fill:#7f3e3b"></polygon><path d="M147.52,363.08l9.71,4.86a.88.88,0,0,1,.45,1.05l-2,6.68c-.7,2.31-3.22,3.15-5.47,2.27-3.07-1.21-5.47-4.2-9.26-6.12-5.5-2.79-8.66-3.39-13.15-8.11-3-3.18.89-4.48,2.65-3.76,4.43,1.82,5.72,3.35,14.38,2.7A5.2,5.2,0,0,1,147.52,363.08Z" style="fill:#263238"></path><path d="M255,284s-67.63-10-74.63,7.33C168.15,321.48,150,358,150,358l10.7,5.71s28-28.1,38.5-58.4c12.53,4.05,48.58,13,63.18,13,15.59,0,25.78-9.22,20.15-31.3a4.44,4.44,0,0,0-4.33-3.32C268.42,283.76,255,284,255,284Z" style="fill:#006FFF"></path><path d="M255,284s-67.63-10-74.63,7.33C168.15,321.48,150,358,150,358l10.7,5.71s28-28.1,38.5-58.4c12.53,4.05,48.58,13,63.18,13,15.59,0,25.78-9.22,20.15-31.3a4.44,4.44,0,0,0-4.33-3.32C268.42,283.76,255,284,255,284Z" style="opacity:0.6000000000000001"></path><path d="M241.67,285.89s-48.69,5.22-49.16,24.89c-.77,32.52-10.75,79.05-10.75,79.05l10.94,1s18.92-36.67,23.3-68.44c19.77,1.28,34.18.93,48.61-1.3,16.17-2.5,27.95-13.77,16.47-37.47C271.54,281.72,241.67,285.89,241.67,285.89Z" style="fill:#006FFF"></path><path d="M241.67,285.89s-48.69,5.22-49.16,24.89c-.77,32.52-10.75,79.05-10.75,79.05l10.94,1s18.92-36.67,23.3-68.44c19.77,1.28,34.18.93,48.61-1.3,16.17-2.5,27.95-13.77,16.47-37.47C271.54,281.72,241.67,285.89,241.67,285.89Z" style="opacity:0.5"></path><path d="M282.73,281l1.18,3.71c.16.29-.18.59-.66.61l-43,1.28c-.37,0-.69-.17-.72-.4l-.49-3.73c0-.26.28-.49.7-.5L282,280.7A.77.77,0,0,1,282.73,281Z" style="fill:#fff"></path><path d="M277.19,285.89l1.13,0c.23,0,.4-.13.38-.27l-.68-4.84c0-.14-.22-.25-.44-.25l-1.14,0c-.22,0-.39.12-.37.27l.67,4.84C276.76,285.79,277,285.9,277.19,285.89Z" style="fill:#006FFF"></path><path d="M243.45,286.9l1.13,0c.23,0,.4-.12.38-.27l-.68-4.84c0-.14-.22-.25-.45-.24l-1.13,0c-.23,0-.39.13-.37.27l.67,4.84C243,286.79,243.22,286.9,243.45,286.9Z" style="fill:#006FFF"></path><path d="M260.32,286.4l1.13,0c.23,0,.4-.13.38-.27l-.68-4.84c0-.14-.22-.25-.45-.25l-1.13,0c-.22,0-.39.13-.37.27l.67,4.84C259.89,286.29,260.09,286.4,260.32,286.4Z" style="fill:#006FFF"></path><path d="M242.6,238.75c-.33.69-.59,1.18-.89,1.75s-.59,1.09-.89,1.62c-.62,1.06-1.25,2.1-1.91,3.14a65.24,65.24,0,0,1-4.33,6A43.61,43.61,0,0,1,223,261.49c-.6.34-1.2.67-1.84,1l-.95.44a7.23,7.23,0,0,1-2.56.63,9.1,9.1,0,0,1-3.37-.45,16.46,16.46,0,0,1-2.24-.93,34.27,34.27,0,0,1-6.41-4.39,75.35,75.35,0,0,1-9.94-10.2l3.74-4c3.71,2.48,7.44,5.07,11.14,7.25.92.55,1.84,1.06,2.74,1.52a18.82,18.82,0,0,0,2.56,1.13,4.77,4.77,0,0,0,1,.25c.22,0,.38,0,0,0a2.42,2.42,0,0,0-.9.21l.56-.33c.39-.22.76-.47,1.14-.73a38.36,38.36,0,0,0,8.29-8.42c1.27-1.65,2.44-3.4,3.59-5.17.57-.89,1.13-1.8,1.66-2.71l.78-1.36.7-1.29Z" style="fill:#7f3e3b"></path><path d="M247,220.34c-13.45,2.72-18.62,19-18.62,19l10.33,8a20.29,20.29,0,0,0,12.89-11.27C254.61,229.27,251.9,219.35,247,220.34Z" style="fill:#006FFF"></path><path d="M194.68,234l3.4,2.49a4.26,4.26,0,0,1,1.66,2.43l2,8.41-2.25,2.77a7.94,7.94,0,0,1-6.39-5.43l-3.74-3.35a1.71,1.71,0,0,1-.41-2.08l2.33-4.55A2.33,2.33,0,0,1,194.68,234Z" style="fill:#7f3e3b"></path><path d="M274.93,184.06c5.19,6.71,9,13.12,7.43,14.46-2.11,1.82-12.57-5.63-22.18-17.6-10.2-12.69-10.67-18.71-3.49-14.5C261.85,169.45,269.56,177.13,274.93,184.06Z" style="fill:#006FFF"></path><path d="M258.42,172.75c-1.94-5.27-8-19.66,12.33-15.87s15,22,15.42,22.2,16.91,5.84,12.08,12c-2.84,3.63-8.76,4.69-13.16,4.95a12.54,12.54,0,0,1-9-3.12C270.59,188.11,260.63,178.78,258.42,172.75Z" style="fill:#006FFF"></path><path d="M258.42,172.75c-1.94-5.27-8-19.66,12.33-15.87s15,22,15.42,22.2,16.91,5.84,12.08,12c-2.84,3.63-8.76,4.69-13.16,4.95a12.54,12.54,0,0,1-9-3.12C270.59,188.11,260.63,178.78,258.42,172.75Z" style="fill:#fff;opacity:0.30000000000000004"></path><path d="M286.37,182.49c-.95.54-2-.92-3-2.81s-1.83-3.5-.87-4,3.16.55,4.24,2.44S287.32,182,286.37,182.49Z" style="fill:#006FFF"></path><polygon points="161.08 364.33 148.71 358.42 151.08 351.96 165.71 360.13 161.08 364.33" style="fill:#006FFF"></polygon><polygon points="194.01 393.29 180.35 392.06 180.33 385.18 196.88 387.73 194.01 393.29" style="fill:#006FFF"></polygon><rect x="213.82" y="314.56" width="75.71" height="21.33" rx="6" style="fill:#006FFF"></rect><path d="M216.54,329.89a2.1,2.1,0,0,0-1.8,3.19,6,6,0,0,0,5.08,2.81h63.71a6,6,0,0,0,5.07-2.81,2.09,2.09,0,0,0-1.79-3.19Z" style="opacity:0.1"></path><rect x="247.51" y="335.89" width="8.32" height="78.81" style="fill:#263238"></rect><rect x="247.51" y="335.89" width="8.32" height="78.81" style="fill:#fff;opacity:0.6000000000000001"></rect><polygon points="255.83 335.89 247.51 335.89 247.51 343.94 255.83 340.89 255.83 335.89" style="opacity:0.2"></polygon><path d="M230.72,409.6l-10.19,3a1.85,1.85,0,0,0,.53,3.62h61.23a1.85,1.85,0,0,0,.52-3.62l-10.19-3A73.59,73.59,0,0,0,230.72,409.6Z" style="fill:#263238"></path></g></svg>